<svg viewBox="0 0 600 400" version="1.1" xmlns="http://www.w3.org/2000/svg" desc="Created with imagetracer.js version 1.2.6" ><path desc="l 0 p 0" fill="rgb(0,0,0)" stroke="rgb(0,0,0)" stroke-width="1" opacity="0" d="M 0 0 L 600 0 L 600 400 L 0 400 L 0 0 Z M 304 88 L 307 98 L 296 98 L 280 102 L 265 109 L 255 117 Q 252 116 253 119 L 267 123 L 271 123 L 286 127 L 304 128 L 305 129 Q 314 130 320 128 L 323 141 L 325 144 L 335 177 L 338 183 Q 337 185 340 184 L 350 172 L 355 159 Q 354 154 356 153 L 356 146 L 355 145 L 354 135 L 349 125 L 367 119 Q 356 108 341 102 L 328 99 Q 318 91 304 88 Z M 247 165 Q 227 169 216 180 Q 203 190 199 207 L 207 206 L 241 195 L 258 191 L 289 181 Q 281 171 269 167 L 261 166 L 260 165 L 247 165 Z M 312 177 L 299 180 L 293 184 Q 287 189 284 198 Q 282 214 289 222 Q 295 230 307 232 L 317 232 Q 324 231 329 227 Q 337 221 339 210 L 339 200 L 334 189 L 326 181 L 319 178 Q 313 180 312 177 Z M 422 204 L 374 219 L 371 219 L 364 222 L 361 222 L 354 225 L 344 227 L 337 230 Q 334 229 335 232 Q 341 239 351 244 L 364 248 L 380 248 Q 381 246 385 247 Q 396 244 405 237 Q 420 226 425 205 L 422 204 Z M 289 228 Q 275 238 272 259 L 272 275 Q 274 275 273 280 Q 277 293 285 303 Q 297 318 319 323 L 320 324 L 319 318 L 317 315 L 317 312 L 309 290 L 309 287 L 290 231 Q 291 227 289 228 Z " /><path desc="l 1 p 0" fill="rgb(0,0,0)" stroke="rgb(0,0,0)" stroke-width="1" opacity="0.8941176470588236" d="M 304 88 L 306 88.5 L 305 90.5 L 307 95.5 L 306 95.5 L 304 88 Z " /><path desc="l 1 p 1" fill="rgb(0,0,0)" stroke="rgb(0,0,0)" stroke-width="1" opacity="0.8941176470588236" d="M 310.5 90 L 316 92.5 L 313.5 94 L 313.5 92 Q 309.7 91.7 310.5 90 Z " /><path desc="l 1 p 2" fill="rgb(0,0,0)" stroke="rgb(0,0,0)" stroke-width="1" opacity="0.8941176470588236" d="M 307 91 L 309 91.5 L 307 92.5 L 307 91 Z " /><path desc="l 1 p 3" fill="rgb(0,0,0)" stroke="rgb(0,0,0)" stroke-width="1" opacity="0.8941176470588236" d="M 317.5 93 L 323 96.5 L 321.5 96 L 318.5 95 L 317 95.5 L 317.5 93 Z " /><path desc="l 1 p 4" fill="rgb(0,0,0)" stroke="rgb(0,0,0)" stroke-width="1" opacity="0.8941176470588236" d="M 308.5 95 L 309 98 L 307 97.5 L 308.5 95 Z " /><path desc="l 1 p 5" fill="rgb(0,0,0)" stroke="rgb(0,0,0)" stroke-width="1" opacity="0.8941176470588236" d="M 324.5 97 L 331 99.5 L 326.5 101 L 326.5 99 L 324.5 100 L 324.5 97 Z " /><path desc="l 1 p 6" fill="rgb(0,0,0)" stroke="rgb(0,0,0)" stroke-width="1" opacity="0.8941176470588236" d="M 295.5 98 L 304 98.5 L 290.5 100 L 290.5 99 Q 294.5 100 295.5 98 Z " /><path desc="l 1 p 7" fill="rgb(0,0,0)" stroke="rgb(0,0,0)" stroke-width="1" opacity="0.8941176470588236" d="M 286.5 100 L 288 100.5 L 286.5 101 L 286.5 100 Z " /><path desc="l 1 p 8" fill="rgb(0,0,0)" stroke="rgb(0,0,0)" stroke-width="1" opacity="0.8941176470588236" d="M 296.5 100 L 298 100.5 L 296.5 101 L 296.5 100 Z " /><path desc="l 1 p 9" fill="rgb(0,0,0)" stroke="rgb(0,0,0)" stroke-width="1" opacity="0.8941176470588236" d="M 282.5 101 L 285 101.5 L 277.5 104 L 277.5 103 L 282.5 101 Z " /><path desc="l 1 p 10" fill="rgb(0,0,0)" stroke="rgb(0,0,0)" stroke-width="1" opacity="0.8941176470588236" d="M 329.5 101 L 331 101.5 L 329.5 102 L 329.5 101 Z " /><path desc="l 1 p 11" fill="rgb(0,0,0)" stroke="rgb(0,0,0)" stroke-width="1" opacity="0.8941176470588236" d="M 335.5 101 L 343 103.5 L 341.5 104 L 335.5 102 L 335.5 101 Z " /><path desc="l 1 p 12" fill="rgb(0,0,0)" stroke="rgb(0,0,0)" stroke-width="1" opacity="0.8941176470588236" d="M 344.5 104 L 349 106.5 L 346.5 108 L 346.5 106 L 344.5 107 L 344.5 104 Z " /><path desc="l 1 p 13" fill="rgb(0,0,0)" stroke="rgb(0,0,0)" stroke-width="1" opacity="0.8941176470588236" d="M 272.5 105 L 274 105.5 L 270.5 107 L 270.5 106 L 272.5 105 Z " /><path desc="l 1 p 14" fill="rgb(0,0,0)" stroke="rgb(0,0,0)" stroke-width="1" opacity="0.8941176470588236" d="M 268.5 107 L 267.5 109 L 263 111.5 Q 265.3 112.8 262.5 114 L 262 111.5 L 264.5 109 L 268.5 107 Z " /><path desc="l 1 p 15" fill="rgb(0,0,0)" stroke="rgb(0,0,0)" stroke-width="1" opacity="0.8941176470588236" d="M 350.5 107 L 357 111.5 L 354.5 110 L 351.5 109 L 350 109.5 L 350.5 107 Z " /><path desc="l 1 p 17" fill="rgb(0,0,0)" stroke="rgb(0,0,0)" stroke-width="1" opacity="0.8941176470588236" d="M 358.5 112 L 367 118.5 L 365 119 Q 366.1 116.3 363.5 117 L 358 112.5 L 358.5 112 Z " /><path desc="l 1 p 18" fill="rgb(0,0,0)" stroke="rgb(0,0,0)" stroke-width="1" opacity="0.8941176470588236" d="M 257.5 114 L 255 117.5 Q 254.2 120.1 257.5 119 L 257.5 120 L 253 119 Q 251.9 116.3 254.5 117 L 257.5 114 Z " /><path desc="l 1 p 19" fill="rgb(0,0,0)" stroke="rgb(0,0,0)" stroke-width="1" opacity="0.8941176470588236" d="M 362.5 119 L 364 119.5 L 362.5 120 L 362.5 119 Z " /><path desc="l 1 p 20" fill="rgb(0,0,0)" stroke="rgb(0,0,0)" stroke-width="1" opacity="0.8941176470588236" d="M 259.5 120 L 261 120.5 L 259.5 121 L 259.5 120 Z " /><path desc="l 1 p 21" fill="rgb(0,0,0)" stroke="rgb(0,0,0)" stroke-width="1" opacity="0.8941176470588236" d="M 266.5 120 L 268 120.5 L 266.5 121 L 266.5 120 Z " /><path desc="l 1 p 22" fill="rgb(0,0,0)" stroke="rgb(0,0,0)" stroke-width="1" opacity="0.8941176470588236" d="M 359.5 120 L 361 120.5 L 359.5 121 L 359.5 120 Z " /><path desc="l 1 p 23" fill="rgb(0,0,0)" stroke="rgb(0,0,0)" stroke-width="1" opacity="0.8941176470588236" d="M 350.5 121 L 355 122.5 L 349.5 124 L 348.5 122 L 350.5 123 L 350.5 121 Z " /><path desc="l 1 p 24" fill="rgb(0,0,0)" stroke="rgb(0,0,0)" stroke-width="1" opacity="0.8941176470588236" d="M 356.5 121 L 358 121.5 L 356.5 122 L 356.5 121 Z " /><path desc="l 1 p 25" fill="rgb(0,0,0)" stroke="rgb(0,0,0)" stroke-width="1" opacity="0.8941176470588236" d="M 266.5 122 L 270 122.5 L 266.5 123 L 266.5 122 Z " /><path desc="l 1 p 26" fill="rgb(0,0,0)" stroke="rgb(0,0,0)" stroke-width="1" opacity="0.8941176470588236" d="M 271.5 123 L 274 123.5 L 271.5 124 L 271.5 123 Z " /><path desc="l 1 p 27" fill="rgb(0,0,0)" stroke="rgb(0,0,0)" stroke-width="1" opacity="0.8941176470588236" d="M 280.5 123 L 282 123.5 L 280.5 124 L 280.5 123 Z " /><path desc="l 1 p 28" fill="rgb(0,0,0)" stroke="rgb(0,0,0)" stroke-width="1" opacity="0.8941176470588236" d="M 275.5 124 L 278 124.5 L 275.5 125 L 275.5 124 Z " /><path desc="l 1 p 29" fill="rgb(0,0,0)" stroke="rgb(0,0,0)" stroke-width="1" opacity="0.8941176470588236" d="M 286.5 124 L 288 124.5 L 286.5 125 L 286.5 124 Z " /><path desc="l 1 p 30" fill="rgb(0,0,0)" stroke="rgb(0,0,0)" stroke-width="1" opacity="0.8941176470588236" d="M 280.5 125 L 292 126.5 L 285.5 127 Q 284.5 125 280.5 126 L 280.5 125 Z " /><path desc="l 1 p 31" fill="rgb(0,0,0)" stroke="rgb(0,0,0)" stroke-width="1" opacity="0.8941176470588236" d="M 294.5 125 L 296 125.5 L 294.5 126 L 294.5 125 Z " /><path desc="l 1 p 32" fill="rgb(0,0,0)" stroke="rgb(0,0,0)" stroke-width="1" opacity="0.8941176470588236" d="M 304.5 126 L 316 126.5 L 304.5 127 L 304.5 126 Z " /><path desc="l 1 p 33" fill="rgb(0,0,0)" stroke="rgb(0,0,0)" stroke-width="1" opacity="0.8941176470588236" d="M 294.5 127 L 299 127.5 L 294.5 128 L 294.5 127 Z " /><path desc="l 1 p 34" fill="rgb(0,0,0)" stroke="rgb(0,0,0)" stroke-width="1" opacity="0.8941176470588236" d="M 350.5 127 L 352 130.5 L 351 130.5 L 350.5 129 L 349 129.5 L 350.5 127 Z " /><path desc="l 1 p 35" fill="rgb(0,0,0)" stroke="rgb(0,0,0)" stroke-width="1" opacity="0.8941176470588236" d="M 304.5 128 L 316 128.5 L 304.5 129 L 304.5 128 Z " /><path desc="l 1 p 36" fill="rgb(0,0,0)" stroke="rgb(0,0,0)" stroke-width="1" opacity="0.8941176470588236" d="M 320.5 128 L 321 130.5 L 320 130.5 L 320.5 128 Z " /><path desc="l 1 p 37" fill="rgb(0,0,0)" stroke="rgb(0,0,0)" stroke-width="1" opacity="0.8941176470588236" d="M 353.5 134 L 354 135.5 L 353 135.5 L 353.5 134 Z " /><path desc="l 1 p 38" fill="rgb(0,0,0)" stroke="rgb(0,0,0)" stroke-width="1" opacity="0.8941176470588236" d="M 322.5 135 L 323 136.5 L 322 136.5 L 322.5 135 Z " /><path desc="l 1 p 39" fill="rgb(0,0,0)" stroke="rgb(0,0,0)" stroke-width="1" opacity="0.8941176470588236" d="M 323.5 138 L 324.5 140 L 326 139.5 L 324.5 143 Q 322.1 141.2 323.5 138 Z " /><path desc="l 1 p 40" fill="rgb(0,0,0)" stroke="rgb(0,0,0)" stroke-width="1" opacity="0.8941176470588236" d="M 352.5 138 L 353 139.5 L 352 139.5 L 352.5 138 Z " /><path desc="l 1 p 41" fill="rgb(0,0,0)" stroke="rgb(0,0,0)" stroke-width="1" opacity="0.8941176470588236" d="M 354.5 138 L 355 144.5 L 356 145.5 L 356 152.5 L 354.5 159 L 354 153.5 Q 356.8 151.8 355 145.5 Q 352.2 143.7 354.5 138 Z " /><path desc="l 1 p 42" fill="rgb(0,0,0)" stroke="rgb(0,0,0)" stroke-width="1" opacity="0.8941176470588236" d="M 325.5 144 L 326 145.5 L 325 145.5 L 325.5 144 Z " /><path desc="l 1 p 43" fill="rgb(0,0,0)" stroke="rgb(0,0,0)" stroke-width="1" opacity="0.8941176470588236" d="M 353.5 146 L 354 150.5 L 353 150.5 L 353.5 146 Z " /><path desc="l 1 p 44" fill="rgb(0,0,0)" stroke="rgb(0,0,0)" stroke-width="1" opacity="0.8941176470588236" d="M 326.5 147 L 327.5 149 L 329 148.5 L 328 152.5 L 329 154.5 L 328 154.5 L 326.5 147 Z " /><path desc="l 1 p 45" fill="rgb(0,0,0)" stroke="rgb(0,0,0)" stroke-width="1" opacity="0.8941176470588236" d="M 329.5 156 L 330 157.5 L 329 157.5 L 329.5 156 Z " /><path desc="l 1 p 46" fill="rgb(0,0,0)" stroke="rgb(0,0,0)" stroke-width="1" opacity="0.8941176470588236" d="M 352.5 157 L 353 158.5 L 352 158.5 L 352.5 157 Z " /><path desc="l 1 p 47" fill="rgb(0,0,0)" stroke="rgb(0,0,0)" stroke-width="1" opacity="0.8941176470588236" d="M 330.5 159 L 332 164.5 L 331 164.5 L 330.5 159 Z " /><path desc="l 1 p 48" fill="rgb(0,0,0)" stroke="rgb(0,0,0)" stroke-width="1" opacity="0.8941176470588236" d="M 352.5 163 L 353 164.5 L 352 164.5 L 352.5 163 Z " /><path desc="l 1 p 49" fill="rgb(0,0,0)" stroke="rgb(0,0,0)" stroke-width="1" opacity="0.8941176470588236" d="M 246.5 165 L 252 165.5 L 246.5 166 L 246.5 165 Z " /><path desc="l 1 p 50" fill="rgb(0,0,0)" stroke="rgb(0,0,0)" stroke-width="1" opacity="0.8941176470588236" d="M 253.5 165 L 260 165.5 L 253.5 166 L 253.5 165 Z " /><path desc="l 1 p 51" fill="rgb(0,0,0)" stroke="rgb(0,0,0)" stroke-width="1" opacity="0.8941176470588236" d="M 241.5 166 L 245 166.5 L 241 167.5 L 241.5 169 L 237 167.5 L 241.5 166 Z " /><path desc="l 1 p 52" fill="rgb(0,0,0)" stroke="rgb(0,0,0)" stroke-width="1" opacity="0.8941176470588236" d="M 262.5 166 L 265.5 166 L 271 168.5 L 269.5 169 L 265.5 168 L 264 168.5 L 264.5 167 Q 261.5 167.5 262.5 166 Z " /><path desc="l 1 p 53" fill="rgb(0,0,0)" stroke="rgb(0,0,0)" stroke-width="1" opacity="0.8941176470588236" d="M 332.5 166 L 335 173.5 L 334 173.5 L 332.5 166 Z " /><path desc="l 1 p 54" fill="rgb(0,0,0)" stroke="rgb(0,0,0)" stroke-width="1" opacity="0.8941176470588236" d="M 351.5 166 L 352 167.5 L 350.5 170 L 350 168.5 L 351.5 166 Z " /><path desc="l 1 p 55" fill="rgb(0,0,0)" stroke="rgb(0,0,0)" stroke-width="1" opacity="0.8941176470588236" d="M 246.5 167 L 248 167.5 L 246.5 168 L 246.5 167 Z " /><path desc="l 1 p 56" fill="rgb(0,0,0)" stroke="rgb(0,0,0)" stroke-width="1" opacity="0.8941176470588236" d="M 258.5 167 L 260 167.5 L 258.5 168 L 258.5 167 Z " /><path desc="l 1 p 57" fill="rgb(0,0,0)" stroke="rgb(0,0,0)" stroke-width="1" opacity="0.8941176470588236" d="M 232.5 169 L 234 169.5 L 230.5 171 L 230.5 170 L 232.5 169 Z " /><path desc="l 1 p 58" fill="rgb(0,0,0)" stroke="rgb(0,0,0)" stroke-width="1" opacity="0.8941176470588236" d="M 272.5 169 L 277 171.5 L 275.5 171 L 272.5 172 L 272.5 169 Z " /><path desc="l 1 p 59" fill="rgb(0,0,0)" stroke="rgb(0,0,0)" stroke-width="1" opacity="0.8941176470588236" d="M 228.5 171 L 227.5 173 L 225 174.5 L 225.5 176 L 223.5 175 L 222 175.5 L 228.5 171 Z " /><path desc="l 1 p 60" fill="rgb(0,0,0)" stroke="rgb(0,0,0)" stroke-width="1" opacity="0.8941176470588236" d="M 349.5 171 L 348 173.5 Q 345.3 180.3 339.5 184 L 338 183.5 L 344 178.5 L 343 176.5 L 347 174.5 L 346 172.5 Q 347.8 174.1 349.5 171 Z " /><path desc="l 1 p 61" fill="rgb(0,0,0)" stroke="rgb(0,0,0)" stroke-width="1" opacity="0.8941176470588236" d="M 278.5 172 L 289 180.5 L 286.5 182 L 287 180.5 L 285.5 178 L 284 178.5 Q 286.3 179.8 283.5 181 L 284 177.5 L 281.5 175 L 279.5 176 L 278.5 172 Z " /><path desc="l 1 p 62" fill="rgb(0,0,0)" stroke="rgb(0,0,0)" stroke-width="1" opacity="0.8941176470588236" d="M 336.5 172 L 337 173.5 L 336 173.5 L 336.5 172 Z " /><path desc="l 1 p 63" fill="rgb(0,0,0)" stroke="rgb(0,0,0)" stroke-width="1" opacity="0.8941176470588236" d="M 335.5 175 L 336 176.5 L 335 176.5 L 335.5 175 Z " /><path desc="l 1 p 64" fill="rgb(0,0,0)" stroke="rgb(0,0,0)" stroke-width="1" opacity="0.8941176470588236" d="M 220.5 176 L 221.5 178 L 223 177.5 Q 221.8 180.3 220.5 178 L 217 180.5 L 218 181.5 L 212.5 187 L 212 184.5 L 215.5 180 L 220.5 176 Z M 214 182 L 214 184 L 216 183 L 214 182 Z " /><path desc="l 1 p 65" fill="rgb(0,0,0)" stroke="rgb(0,0,0)" stroke-width="1" opacity="0.8941176470588236" d="M 304.5 178 L 307 178.5 L 304.5 179 L 304.5 178 Z " /><path desc="l 1 p 66" fill="rgb(0,0,0)" stroke="rgb(0,0,0)" stroke-width="1" opacity="0.8941176470588236" d="M 315.5 178 L 319 178.5 L 315.5 179 L 315.5 178 Z " /><path desc="l 1 p 67" fill="rgb(0,0,0)" stroke="rgb(0,0,0)" stroke-width="1" opacity="0.8941176470588236" d="M 301.5 179 L 303 179.5 L 301.5 180 L 301.5 179 Z " /><path desc="l 1 p 68" fill="rgb(0,0,0)" stroke="rgb(0,0,0)" stroke-width="1" opacity="0.8941176470588236" d="M 298.5 180 L 300 180.5 L 297.5 182 L 298.5 180 Z " /><path desc="l 1 p 69" fill="rgb(0,0,0)" stroke="rgb(0,0,0)" stroke-width="1" opacity="0.8941176470588236" d="M 322.5 180 Q 329.9 182.6 334 188.5 L 335 190.5 L 333 189.5 L 328.5 184 L 327 184.5 L 327.5 186 L 325.5 182 Q 321.8 181.7 322.5 180 Z " /><path desc="l 1 p 70" fill="rgb(0,0,0)" stroke="rgb(0,0,0)" stroke-width="1" opacity="0.8941176470588236" d="M 337.5 180 L 338 181.5 L 337 181.5 L 337.5 180 Z " /><path desc="l 1 p 72" fill="rgb(0,0,0)" stroke="rgb(0,0,0)" stroke-width="1" opacity="0.8941176470588236" d="M 282.5 182 L 284 182.5 L 282.5 183 L 282.5 182 Z " /><path desc="l 1 p 73" fill="rgb(0,0,0)" stroke="rgb(0,0,0)" stroke-width="1" opacity="0.8941176470588236" d="M 295.5 182 L 294 184.5 L 295 185.5 L 291.5 189 Q 289.8 186.2 288 190.5 L 285.5 196 L 285 194.5 L 292.5 184 L 295.5 182 Z M 292 185 L 292 187 L 294 186 L 292 185 Z " /><path desc="l 1 p 74" fill="rgb(0,0,0)" stroke="rgb(0,0,0)" stroke-width="1" opacity="0.8941176470588236" d="M 278.5 183 L 281 183.5 L 275.5 185 L 275.5 184 L 278.5 183 Z " /><path desc="l 1 p 75" fill="rgb(0,0,0)" stroke="rgb(0,0,0)" stroke-width="1" opacity="0.8941176470588236" d="M 272.5 185 L 274 185.5 L 272.5 186 L 272.5 185 Z " /><path desc="l 1 p 78" fill="rgb(0,0,0)" stroke="rgb(0,0,0)" stroke-width="1" opacity="0.8941176470588236" d="M 268.5 186 L 271 186.5 L 265.5 188 L 265.5 187 L 268.5 186 Z " /><path desc="l 1 p 79" fill="rgb(0,0,0)" stroke="rgb(0,0,0)" stroke-width="1" opacity="0.8941176470588236" d="M 262.5 188 L 264 188.5 L 262.5 189 L 262.5 188 Z " /><path desc="l 1 p 81" fill="rgb(0,0,0)" stroke="rgb(0,0,0)" stroke-width="1" opacity="0.8941176470588236" d="M 253.5 189 L 258 190.5 L 248.5 193 L 248.5 192 L 254 190.5 L 253.5 189 Z " /><path desc="l 1 p 82" fill="rgb(0,0,0)" stroke="rgb(0,0,0)" stroke-width="1" opacity="0.8941176470588236" d="M 259.5 189 L 261 189.5 L 259.5 190 L 259.5 189 Z " /><path desc="l 1 p 84" fill="rgb(0,0,0)" stroke="rgb(0,0,0)" stroke-width="1" opacity="0.8941176470588236" d="M 206.5 191 L 206 192.5 L 204.5 195 L 205 193.5 L 206.5 191 Z " /><path desc="l 1 p 85" fill="rgb(0,0,0)" stroke="rgb(0,0,0)" stroke-width="1" opacity="0.8941176470588236" d="M 335.5 192 L 338 197.5 L 337 197.5 L 336.5 196 L 335 196.5 L 336 193.5 L 335.5 192 Z " /><path desc="l 1 p 86" fill="rgb(0,0,0)" stroke="rgb(0,0,0)" stroke-width="1" opacity="0.8941176470588236" d="M 244.5 193 L 247 193.5 L 241.5 195 L 241.5 194 L 244.5 193 Z " /><path desc="l 1 p 87" fill="rgb(0,0,0)" stroke="rgb(0,0,0)" stroke-width="1" opacity="0.8941176470588236" d="M 238.5 195 L 240 195.5 L 238.5 196 L 238.5 195 Z " /><path desc="l 1 p 88" fill="rgb(0,0,0)" stroke="rgb(0,0,0)" stroke-width="1" opacity="0.8941176470588236" d="M 203.5 196 L 203 197.5 L 202.5 199 L 202 197.5 L 203.5 196 Z " /><path desc="l 1 p 89" fill="rgb(0,0,0)" stroke="rgb(0,0,0)" stroke-width="1" opacity="0.8941176470588236" d="M 229.5 196 L 234 197.5 L 225.5 200 L 225.5 199 L 230 197.5 L 229.5 196 Z " /><path desc="l 1 p 90" fill="rgb(0,0,0)" stroke="rgb(0,0,0)" stroke-width="1" opacity="0.8941176470588236" d="M 235.5 196 L 237 196.5 L 235.5 197 L 235.5 196 Z " /><path desc="l 1 p 91" fill="rgb(0,0,0)" stroke="rgb(0,0,0)" stroke-width="1" opacity="0.8941176470588236" d="M 284.5 197 L 285 210.5 L 284 210.5 L 284.5 197 Z " /><path desc="l 1 p 92" fill="rgb(0,0,0)" stroke="rgb(0,0,0)" stroke-width="1" opacity="0.8941176470588236" d="M 219.5 199 L 223 200.5 L 214.5 203 L 214.5 202 L 220 200.5 L 219.5 199 Z " /><path desc="l 1 p 93" fill="rgb(0,0,0)" stroke="rgb(0,0,0)" stroke-width="1" opacity="0.8941176470588236" d="M 338.5 199 L 339 209.5 L 338 209.5 L 338.5 199 Z " /><path desc="l 1 p 94" fill="rgb(0,0,0)" stroke="rgb(0,0,0)" stroke-width="1" opacity="0.8941176470588236" d="M 211.5 203 L 213 203.5 L 211.5 204 L 211.5 203 Z " /><path desc="l 1 p 95" fill="rgb(0,0,0)" stroke="rgb(0,0,0)" stroke-width="1" opacity="0.8941176470588236" d="M 199.5 204 L 200 206.5 L 199 206.5 L 199.5 204 Z " /><path desc="l 1 p 96" fill="rgb(0,0,0)" stroke="rgb(0,0,0)" stroke-width="1" opacity="0.8941176470588236" d="M 207.5 204 L 210 204.5 L 204.5 206 L 204.5 205 L 207.5 204 Z " /><path desc="l 1 p 97" fill="rgb(0,0,0)" stroke="rgb(0,0,0)" stroke-width="1" opacity="0.8941176470588236" d="M 421.5 204 L 423 204.5 L 421.5 205 L 421.5 204 Z " /><path desc="l 1 p 98" fill="rgb(0,0,0)" stroke="rgb(0,0,0)" stroke-width="1" opacity="0.8941176470588236" d="M 417.5 205 L 420 205.5 L 414.5 207 L 414.5 206 L 417.5 205 Z " /><path desc="l 1 p 99" fill="rgb(0,0,0)" stroke="rgb(0,0,0)" stroke-width="1" opacity="0.8941176470588236" d="M 201.5 206 L 203 206.5 L 201.5 207 L 201.5 206 Z " /><path desc="l 1 p 100" fill="rgb(0,0,0)" stroke="rgb(0,0,0)" stroke-width="1" opacity="0.8941176470588236" d="M 423.5 206 L 424 208.5 L 422.5 212 L 422 209.5 L 423.5 206 Z " /><path desc="l 1 p 101" fill="rgb(0,0,0)" stroke="rgb(0,0,0)" stroke-width="1" opacity="0.8941176470588236" d="M 411.5 207 L 413 207.5 L 411.5 208 L 411.5 207 Z " /><path desc="l 1 p 102" fill="rgb(0,0,0)" stroke="rgb(0,0,0)" stroke-width="1" opacity="0.8941176470588236" d="M 407.5 208 L 410 208.5 L 404.5 210 L 404.5 209 L 407.5 208 Z " /><path desc="l 1 p 103" fill="rgb(0,0,0)" stroke="rgb(0,0,0)" stroke-width="1" opacity="0.8941176470588236" d="M 286.5 209 L 287 210.5 L 286 210.5 L 286.5 209 Z " /><path desc="l 1 p 104" fill="rgb(0,0,0)" stroke="rgb(0,0,0)" stroke-width="1" opacity="0.8941176470588236" d="M 401.5 210 L 403 210.5 L 401.5 211 L 401.5 210 Z " /><path desc="l 1 p 105" fill="rgb(0,0,0)" stroke="rgb(0,0,0)" stroke-width="1" opacity="0.8941176470588236" d="M 337.5 211 L 338 213.5 L 335.5 218 L 336 216.5 L 335 213.5 L 337 213.5 L 337.5 211 Z " /><path desc="l 1 p 106" fill="rgb(0,0,0)" stroke="rgb(0,0,0)" stroke-width="1" opacity="0.8941176470588236" d="M 397.5 211 L 399 211.5 L 397.5 212 L 397.5 211 Z " /><path desc="l 1 p 107" fill="rgb(0,0,0)" stroke="rgb(0,0,0)" stroke-width="1" opacity="0.8941176470588236" d="M 393.5 212 L 396 212.5 L 390.5 214 L 390.5 213 L 393.5 212 Z " /><path desc="l 1 p 108" fill="rgb(0,0,0)" stroke="rgb(0,0,0)" stroke-width="1" opacity="0.8941176470588236" d="M 285.5 213 L 289 219.5 L 287 218.5 L 285.5 213 Z " /><path desc="l 1 p 109" fill="rgb(0,0,0)" stroke="rgb(0,0,0)" stroke-width="1" opacity="0.8941176470588236" d="M 387.5 214 L 389 214.5 L 387.5 215 L 387.5 214 Z " /><path desc="l 1 p 110" fill="rgb(0,0,0)" stroke="rgb(0,0,0)" stroke-width="1" opacity="0.8941176470588236" d="M 384.5 215 L 386 215.5 L 384.5 216 L 384.5 215 Z " /><path desc="l 1 p 111" fill="rgb(0,0,0)" stroke="rgb(0,0,0)" stroke-width="1" opacity="0.8941176470588236" d="M 420.5 215 L 421 216.5 L 415.5 225 L 416 223.5 L 415 221.5 Q 416.5 223 418 220.5 L 420.5 215 Z " /><path desc="l 1 p 112" fill="rgb(0,0,0)" stroke="rgb(0,0,0)" stroke-width="1" opacity="0.8941176470588236" d="M 380.5 216 L 383 216.5 L 377.5 218 L 377.5 217 L 380.5 216 Z " /><path desc="l 1 p 113" fill="rgb(0,0,0)" stroke="rgb(0,0,0)" stroke-width="1" opacity="0.8941176470588236" d="M 374.5 218 L 376 218.5 L 374.5 219 L 374.5 218 Z " /><path desc="l 1 p 114" fill="rgb(0,0,0)" stroke="rgb(0,0,0)" stroke-width="1" opacity="0.8941176470588236" d="M 334.5 219 L 334 220.5 L 328.5 227 L 325.5 229 L 327 226.5 L 326 225.5 L 328.5 223 L 327.5 226 L 333 221.5 L 334.5 219 Z " /><path desc="l 1 p 115" fill="rgb(0,0,0)" stroke="rgb(0,0,0)" stroke-width="1" opacity="0.8941176470588236" d="M 370.5 219 L 373 219.5 L 367.5 221 L 367.5 220 L 370.5 219 Z " /><path desc="l 1 p 116" fill="rgb(0,0,0)" stroke="rgb(0,0,0)" stroke-width="1" opacity="0.8941176470588236" d="M 289.5 221 L 295.5 226 L 295.5 224 L 297.5 228 L 301.5 229 L 303 228.5 L 302.5 230 L 304 230.5 L 302.5 231 Q 293 228 289.5 221 Z " /><path desc="l 1 p 117" fill="rgb(0,0,0)" stroke="rgb(0,0,0)" stroke-width="1" opacity="0.8941176470588236" d="M 360.5 222 L 362 222.5 L 360 223.5 L 362 224.5 L 360.5 225 L 357.5 224 L 357.5 226 L 354 224.5 L 360.5 222 Z " /><path desc="l 1 p 119" fill="rgb(0,0,0)" stroke="rgb(0,0,0)" stroke-width="1" opacity="0.8941176470588236" d="M 350.5 225 L 352 225.5 L 350.5 226 L 350.5 225 Z " /><path desc="l 1 p 120" fill="rgb(0,0,0)" stroke="rgb(0,0,0)" stroke-width="1" opacity="0.8941176470588236" d="M 347.5 226 L 349 226.5 L 347.5 227 L 347.5 226 Z " /><path desc="l 1 p 121" fill="rgb(0,0,0)" stroke="rgb(0,0,0)" stroke-width="1" opacity="0.8941176470588236" d="M 414.5 226 L 415 226.5 L 404.5 237 L 400.5 240 L 403 236.5 L 402.5 235 L 404.5 236 Q 409.3 233.5 407.5 231 L 408.5 232 L 414.5 226 Z " /><path desc="l 1 p 122" fill="rgb(0,0,0)" stroke="rgb(0,0,0)" stroke-width="1" opacity="0.8941176470588236" d="M 343.5 227 L 346 227.5 L 340.5 229 L 340.5 228 L 343.5 227 Z " /><path desc="l 1 p 123" fill="rgb(0,0,0)" stroke="rgb(0,0,0)" stroke-width="1" opacity="0.8941176470588236" d="M 288.5 228 L 290 228.5 L 285 232.5 L 286 234.5 Q 284.7 237.3 283.5 235 L 281 237.5 L 279.5 240 L 280 238.5 L 288.5 228 Z " /><path desc="l 1 p 124" fill="rgb(0,0,0)" stroke="rgb(0,0,0)" stroke-width="1" opacity="0.8941176470588236" d="M 320.5 228 L 324 229.5 L 319.5 231 L 319.5 230 L 321 229.5 L 320.5 228 Z " /><path desc="l 1 p 125" fill="rgb(0,0,0)" stroke="rgb(0,0,0)" stroke-width="1" opacity="0.8941176470588236" d="M 337.5 229 L 339 229.5 L 337.5 230 L 337.5 229 Z " /><path desc="l 1 p 126" fill="rgb(0,0,0)" stroke="rgb(0,0,0)" stroke-width="1" opacity="0.8941176470588236" d="M 335.5 230 L 336 231.5 L 335 231.5 L 335.5 230 Z " /><path desc="l 1 p 127" fill="rgb(0,0,0)" stroke="rgb(0,0,0)" stroke-width="1" opacity="0.8941176470588236" d="M 290.5 231 L 292 236.5 L 291 236.5 L 290.5 231 Z " /><path desc="l 1 p 128" fill="rgb(0,0,0)" stroke="rgb(0,0,0)" stroke-width="1" opacity="0.8941176470588236" d="M 306.5 231 L 310 231.5 L 306.5 232 L 306.5 231 Z " /><path desc="l 1 p 129" fill="rgb(0,0,0)" stroke="rgb(0,0,0)" stroke-width="1" opacity="0.8941176470588236" d="M 313.5 231 L 317 231.5 L 313.5 232 L 313.5 231 Z " /><path desc="l 1 p 130" fill="rgb(0,0,0)" stroke="rgb(0,0,0)" stroke-width="1" opacity="0.8941176470588236" d="M 338.5 231 L 341 234.5 L 338.5 235 L 337 233.5 L 338.5 231 Z " /><path desc="l 1 p 132" fill="rgb(0,0,0)" stroke="rgb(0,0,0)" stroke-width="1" opacity="0.8941176470588236" d="M 344.5 239 L 346.5 240 L 348 239.5 L 347.5 242 L 344 239.5 L 344.5 239 Z " /><path desc="l 1 p 133" fill="rgb(0,0,0)" stroke="rgb(0,0,0)" stroke-width="1" opacity="0.8941176470588236" d="M 396.5 239 L 399 240.5 L 396.5 242 L 396.5 239 Z " /><path desc="l 1 p 134" fill="rgb(0,0,0)" stroke="rgb(0,0,0)" stroke-width="1" opacity="0.8941176470588236" d="M 293.5 240 L 295 245.5 L 294 245.5 L 293.5 240 Z " /><path desc="l 1 p 135" fill="rgb(0,0,0)" stroke="rgb(0,0,0)" stroke-width="1" opacity="0.8941176470588236" d="M 278.5 241 L 278 242.5 L 276.5 246 L 276 244.5 L 278.5 241 Z " /><path desc="l 1 p 136" fill="rgb(0,0,0)" stroke="rgb(0,0,0)" stroke-width="1" opacity="0.8941176470588236" d="M 349.5 242 L 352 243.5 L 350.5 244 L 349.5 242 Z " /><path desc="l 1 p 137" fill="rgb(0,0,0)" stroke="rgb(0,0,0)" stroke-width="1" opacity="0.8941176470588236" d="M 390.5 242 L 393 243.5 L 386.5 246 L 386.5 245 L 388 244.5 L 387.5 243 L 390.5 244 L 390.5 242 Z " /><path desc="l 1 p 138" fill="rgb(0,0,0)" stroke="rgb(0,0,0)" stroke-width="1" opacity="0.8941176470588236" d="M 353.5 244 L 355 244.5 L 353.5 245 L 353.5 244 Z " /><path desc="l 1 p 139" fill="rgb(0,0,0)" stroke="rgb(0,0,0)" stroke-width="1" opacity="0.8941176470588236" d="M 356.5 245 L 358 245.5 L 356.5 246 L 356.5 245 Z " /><path desc="l 1 p 140" fill="rgb(0,0,0)" stroke="rgb(0,0,0)" stroke-width="1" opacity="0.8941176470588236" d="M 363.5 245 L 365 245.5 L 363.5 246 L 363.5 245 Z " /><path desc="l 1 p 141" fill="rgb(0,0,0)" stroke="rgb(0,0,0)" stroke-width="1" opacity="0.8941176470588236" d="M 378.5 245 L 380 245.5 L 378.5 246 L 378.5 245 Z " /><path desc="l 1 p 142" fill="rgb(0,0,0)" stroke="rgb(0,0,0)" stroke-width="1" opacity="0.8941176470588236" d="M 359.5 246 L 361 246.5 L 359.5 247 L 359.5 246 Z " /><path desc="l 1 p 143" fill="rgb(0,0,0)" stroke="rgb(0,0,0)" stroke-width="1" opacity="0.8941176470588236" d="M 383.5 246 L 385 246.5 L 383.5 247 L 383.5 246 Z " /><path desc="l 1 p 144" fill="rgb(0,0,0)" stroke="rgb(0,0,0)" stroke-width="1" opacity="0.8941176470588236" d="M 295.5 247 L 296 248.5 L 295 248.5 L 295.5 247 Z " /><path desc="l 1 p 145" fill="rgb(0,0,0)" stroke="rgb(0,0,0)" stroke-width="1" opacity="0.8941176470588236" d="M 363.5 247 L 380 247.5 L 363.5 248 L 363.5 247 Z " /><path desc="l 1 p 146" fill="rgb(0,0,0)" stroke="rgb(0,0,0)" stroke-width="1" opacity="0.8941176470588236" d="M 274.5 249 L 276 253.5 L 274 253.5 L 273.5 256 L 273 252.5 L 274.5 249 Z " /><path desc="l 1 p 147" fill="rgb(0,0,0)" stroke="rgb(0,0,0)" stroke-width="1" opacity="0.8941176470588236" d="M 297.5 253 L 299 257.5 L 298 257.5 L 297.5 256 L 296 256.5 L 297.5 253 Z " /><path desc="l 1 p 148" fill="rgb(0,0,0)" stroke="rgb(0,0,0)" stroke-width="1" opacity="0.8941176470588236" d="M 272.5 258 L 273 261.5 L 272 261.5 L 272.5 258 Z " /><path desc="l 1 p 149" fill="rgb(0,0,0)" stroke="rgb(0,0,0)" stroke-width="1" opacity="0.8941176470588236" d="M 274.5 258 L 275 259.5 L 274 259.5 L 274.5 258 Z " /><path desc="l 1 p 150" fill="rgb(0,0,0)" stroke="rgb(0,0,0)" stroke-width="1" opacity="0.8941176470588236" d="M 300.5 262 L 303 269.5 L 302 269.5 L 301.5 268 L 300 268.5 L 301 265.5 L 299 265.5 L 300.5 262 Z " /><path desc="l 1 p 151" fill="rgb(0,0,0)" stroke="rgb(0,0,0)" stroke-width="1" opacity="0.8941176470588236" d="M 272.5 270 L 273 274.5 L 272 274.5 L 272.5 270 Z " /><path desc="l 1 p 152" fill="rgb(0,0,0)" stroke="rgb(0,0,0)" stroke-width="1" opacity="0.8941176470588236" d="M 303.5 271 L 304 272.5 L 303 272.5 L 303.5 271 Z " /><path desc="l 1 p 153" fill="rgb(0,0,0)" stroke="rgb(0,0,0)" stroke-width="1" opacity="0.8941176470588236" d="M 274.5 272 L 275 273.5 L 274 273.5 L 274.5 272 Z " /><path desc="l 1 p 154" fill="rgb(0,0,0)" stroke="rgb(0,0,0)" stroke-width="1" opacity="0.8941176470588236" d="M 304.5 274 L 307 281.5 L 306 281.5 L 304 276.5 L 304.5 274 Z " /><path desc="l 1 p 155" fill="rgb(0,0,0)" stroke="rgb(0,0,0)" stroke-width="1" opacity="0.8941176470588236" d="M 273.5 276 L 275 282.5 L 274 282.5 L 273.5 276 Z " /><path desc="l 1 p 156" fill="rgb(0,0,0)" stroke="rgb(0,0,0)" stroke-width="1" opacity="0.8941176470588236" d="M 307.5 283 L 309 288.5 L 308 288.5 L 307.5 283 Z " /><path desc="l 1 p 157" fill="rgb(0,0,0)" stroke="rgb(0,0,0)" stroke-width="1" opacity="0.8941176470588236" d="M 275.5 284 L 276 285.5 L 275 285.5 L 275.5 284 Z " /><path desc="l 1 p 158" fill="rgb(0,0,0)" stroke="rgb(0,0,0)" stroke-width="1" opacity="0.8941176470588236" d="M 276.5 287 L 279 287.5 L 278 290.5 L 278.5 292 L 276.5 287 Z " /><path desc="l 1 p 159" fill="rgb(0,0,0)" stroke="rgb(0,0,0)" stroke-width="1" opacity="0.8941176470588236" d="M 309.5 290 L 310 291.5 L 309 291.5 L 309.5 290 Z " /><path desc="l 1 p 160" fill="rgb(0,0,0)" stroke="rgb(0,0,0)" stroke-width="1" opacity="0.8941176470588236" d="M 279.5 293 L 282 293.5 L 281 295.5 L 281.5 297 L 279.5 293 Z " /><path desc="l 1 p 161" fill="rgb(0,0,0)" stroke="rgb(0,0,0)" stroke-width="1" opacity="0.8941176470588236" d="M 311.5 296 L 314 303.5 L 313 303.5 L 311.5 299 L 310 299.5 L 311.5 296 Z " /><path desc="l 1 p 162" fill="rgb(0,0,0)" stroke="rgb(0,0,0)" stroke-width="1" opacity="0.8941176470588236" d="M 282.5 298 L 285.5 301 Q 287.3 298.3 289 302.5 L 286 301.5 L 293 309.5 L 292.5 310 L 285 302.5 L 282.5 298 Z " /><path desc="l 1 p 163" fill="rgb(0,0,0)" stroke="rgb(0,0,0)" stroke-width="1" opacity="0.8941176470588236" d="M 314.5 305 L 315 306.5 L 314 306.5 L 314.5 305 Z " /><path desc="l 1 p 165" fill="rgb(0,0,0)" stroke="rgb(0,0,0)" stroke-width="1" opacity="0.8941176470588236" d="M 315.5 308 L 317 313.5 L 316 313.5 L 315.5 308 Z " /><path desc="l 1 p 166" fill="rgb(0,0,0)" stroke="rgb(0,0,0)" stroke-width="1" opacity="0.8941176470588236" d="M 294.5 310 L 297.5 312 Q 298.8 309.8 300 312.5 Q 297.8 313.8 300.5 315 L 303 316.5 L 301.5 316 Q 296 313.9 294.5 310 Z " /><path desc="l 1 p 167" fill="rgb(0,0,0)" stroke="rgb(0,0,0)" stroke-width="1" opacity="0.8941176470588236" d="M 308.5 317 L 308.5 319 L 312 320.5 L 310.5 321 L 306 318.5 L 308.5 317 Z " /><path desc="l 1 p 168" fill="rgb(0,0,0)" stroke="rgb(0,0,0)" stroke-width="1" opacity="0.8941176470588236" d="M 318.5 317 L 319 319.5 L 318 319.5 L 318.5 317 Z " /><path desc="l 1 p 169" fill="rgb(0,0,0)" stroke="rgb(0,0,0)" stroke-width="1" opacity="0.8941176470588236" d="M 319.5 321 L 320 323.5 L 318.5 323 L 315 322.5 L 319.5 321 Z " /><path desc="l 4 p 0" fill="rgb(0,0,0)" stroke="rgb(0,0,0)" stroke-width="1" opacity="0.9882352941176471" d="M 305 89 L 307.5 89 L 314 92.5 L 313.5 94 L 316.5 93 L 328.5 101 L 330 100.5 L 329.5 102 L 332.5 100 L 349.5 107 L 365 117 Q 366.3 120 362.5 119 L 353.5 122 L 350.5 121 L 350.5 123 Q 347.9 122.2 349 125.5 L 354 136.5 L 355 152.5 Q 352.3 154.3 354 160.5 L 350 170.5 L 339.5 183 Q 336.9 183.8 338 180.5 L 336 177.5 L 335 171.5 L 332 165.5 L 332 162.5 L 325 142.5 Q 327.5 141 324 139.5 L 321 130.5 L 322 128 L 312 127.5 L 316 126.5 L 302.5 126 L 302.5 127 L 305 127.5 L 299.5 128 L 298.5 127 L 285 125.5 L 288 124.5 L 283.5 124 Q 282.5 126 278.5 125 L 270 122.5 L 272 121.5 L 269.5 121 Q 268.5 123 264.5 122 L 255 119 L 258.5 114 Q 266.3 107.3 277.5 104 L 280.5 105 L 280.5 104 L 279 103.5 L 280.5 103 L 282 103.5 Q 281.2 100.9 284.5 102 L 288.5 100 L 288.5 102 L 298 100.5 L 295 99.5 L 309 98 L 308.5 95 L 307.5 97 L 307 95.5 L 308 92 L 310 91.5 L 307 91 L 306.5 94 L 305 89 Z M 311 92 L 311 93 L 312 93 L 311 92 Z M 313 96 L 312 99 L 313 99 L 313 96 Z M 286 102 L 286 103 L 287 103 L 286 102 Z M 293 104 Q 291 106 287 105 L 287 106 L 290 106 Q 289 111 293 109 L 293 104 Z M 303 107 L 303 108 L 305 108 L 303 107 Z M 311 108 L 310 109 L 307 110 L 307 123 L 302 123 L 302 121 L 296 121 L 295 120 L 291 120 Q 292 117 288 118 L 288 111 L 286 111 L 286 120 L 285 120 L 285 121 Q 287 120 286 123 L 301 123 L 304 124 Q 305 126 306 124 L 313 125 L 312 123 L 312 115 L 313 114 Q 314 109 311 110 L 311 108 Z M 278 110 L 278 111 L 280 111 L 278 110 Z M 331 111 L 331 113 L 333 112 L 331 111 Z M 258 116 L 256 118 L 258 118 L 258 116 Z M 267 120 L 267 121 L 268 121 L 267 120 Z M 355 120 L 355 121 L 356 121 L 355 120 Z M 276 122 L 276 123 L 277 123 L 276 122 Z M 281 123 L 281 124 L 282 124 L 281 123 Z M 295 125 L 295 126 L 296 126 L 295 125 Z M 323 130 L 322 132 L 323 132 L 323 130 Z M 353 138 L 352 140 L 353 140 L 353 138 Z M 354 146 L 353 152 L 354 152 L 354 146 Z M 330 151 L 329 153 L 330 153 L 330 151 Z M 334 152 L 333 155 L 334 155 L 334 152 Z M 353 157 L 352 159 L 353 159 L 353 157 Z M 337 172 L 336 174 L 337 174 L 337 172 Z " /><path desc="l 4 p 15" fill="rgb(0,0,0)" stroke="rgb(0,0,0)" stroke-width="1" opacity="0.9882352941176471" d="M 306.5 127 L 309 127.5 L 306.5 128 L 306.5 127 Z " /><path desc="l 4 p 22" fill="rgb(0,0,0)" stroke="rgb(0,0,0)" stroke-width="1" opacity="0.9882352941176471" d="M 245.5 166 L 247 166.5 L 246.5 168 L 250.5 166 Q 252 168.5 257.5 167 L 261.5 166 L 276 171.5 L 274 172.5 L 276.5 174 L 277.5 172 Q 281.2 174 279.5 176 L 281.5 175 L 284 177.5 Q 281.8 178.8 284.5 180 L 285.5 178 L 287 180.5 L 285.5 182 L 276.5 184 L 275 183.5 Q 275.8 186.1 272.5 185 L 256.5 190 L 253.5 189 L 253.5 191 L 243.5 194 L 241 193 Q 242.3 196 238.5 195 L 200.5 207 L 200 203.5 L 211 185 L 214 183.5 Q 213.3 181.3 215.5 182 Q 217 177.5 221 178 Q 219.9 175.3 222.5 176 L 229.5 171 L 245.5 166 Z M 259 167 L 259 168 L 260 168 L 259 167 Z M 238 169 L 238 170 L 239 170 L 238 169 Z M 243 171 L 243 173 Q 248 174 251 172 L 243 171 Z M 254 174 L 254 175 L 256 175 L 254 174 Z M 254 186 L 248 188 L 254 188 L 254 186 Z M 264 186 L 264 187 L 265 187 L 264 186 Z M 261 187 L 261 188 L 262 188 L 261 187 Z M 216 195 L 215 198 L 216 198 L 216 195 Z " /><path desc="l 4 p 28" fill="rgb(0,0,0)" stroke="rgb(0,0,0)" stroke-width="1" opacity="0.9882352941176471" d="M 307.5 178 L 314.5 178 L 324 181 L 324.5 183 Q 326 180.5 327.5 184 L 333 188.5 L 338 198.5 L 338 210.5 Q 335.6 220.6 328.5 226 L 324.5 229 L 322.5 229 L 320.5 228 L 320.5 230 L 315.5 231 Q 314.5 229 310.5 230 L 310.5 231 L 313 231.5 L 310.5 232 Q 309.3 229.7 304.5 231 L 297 228 L 296.5 225 L 294.5 226 L 288 218.5 L 289 216.5 L 287 216.5 Q 284.5 214.5 285 209.5 L 286 208.5 L 286 200.5 L 285 196.5 L 287.5 192 Q 288.8 194.2 290 191.5 L 288 190.5 Q 292.5 189 292 185 L 294.5 186 L 295 183 Q 299.8 179.5 307.5 178 Z M 310 179 L 310 180 L 311 180 L 310 179 Z M 313 179 L 313 180 L 315 180 L 313 179 Z M 321 181 L 321 182 L 322 182 L 321 181 Z M 299 182 L 299 183 L 300 183 L 299 182 Z M 312 182 L 309 183 L 310 191 L 307 192 L 307 199 L 311 199 Q 312 203 310 205 L 313 205 L 313 198 L 312 197 L 312 190 Q 316 190 314 184 L 312 182 Z M 302 184 L 301 191 L 300 192 Q 299 194 302 193 L 302 184 Z M 331 188 L 332 190 Q 333 187 331 188 Z M 320 189 L 318 190 L 318 191 Q 321 190 319 196 Q 317 197 319 198 Q 317 203 321 202 L 322 198 Q 323 195 320 196 L 320 192 Q 322 190 320 189 Z M 293 190 L 293 196 L 290 197 L 290 202 L 287 202 Q 286 208 289 210 Q 287 215 293 213 L 295 219 Q 294 214 297 213 Q 301 211 300 215 L 302 216 L 302 212 L 297 212 L 295 206 Q 295 200 296 197 L 298 197 L 295 196 Q 294 192 296 191 L 293 190 Z M 334 191 L 333 193 L 334 193 L 334 191 Z M 287 197 L 286 199 L 287 199 L 287 197 Z M 300 203 L 301 207 L 302 207 Q 303 202 300 203 Z M 337 208 L 336 210 L 337 210 L 337 208 Z M 287 209 L 286 211 L 287 211 L 287 209 Z M 312 210 L 310 217 Q 312 222 307 220 Q 305 225 311 223 L 311 229 L 312 229 Q 311 226 314 227 Q 315 224 312 223 L 312 215 L 313 214 L 312 210 Z M 295 224 L 295 225 L 296 225 L 295 224 Z M 324 227 L 324 228 L 325 228 L 324 227 Z " /><path desc="l 4 p 45" fill="rgb(0,0,0)" stroke="rgb(0,0,0)" stroke-width="1" opacity="0.9882352941176471" d="M 423.5 204 L 424 205.5 L 422.5 209 L 422 206 L 420 205.5 L 423.5 204 Z " /><path desc="l 4 p 46" fill="rgb(0,0,0)" stroke="rgb(0,0,0)" stroke-width="1" opacity="0.9882352941176471" d="M 417.5 206 L 421 207 L 420 211.5 L 422 212.5 L 415.5 224 Q 414.3 221.8 413 224.5 L 415 225.5 L 399.5 240 L 385.5 246 L 378.5 247 L 375.5 246 Q 374.5 248 373.5 246 L 369.5 247 L 366.5 246 Q 365.5 248 361.5 247 Q 347.9 243.4 339 236 L 337.5 233 Q 334.5 233.7 336 230 Q 345.3 229.3 352.5 225 L 353 227 L 355 226.5 L 354.5 225 L 357.5 226 L 357.5 224 L 362.5 222 Q 364 225.5 365.5 223 L 368 222.5 L 365 221.5 L 391.5 214 L 393 214.5 Q 392.2 211.9 395.5 213 L 417.5 206 Z M 411 209 L 411 210 L 412 210 L 411 209 Z M 420 213 L 419 215 L 420 215 L 420 213 Z M 387 216 L 387 217 L 388 217 L 387 216 Z M 377 219 L 377 220 L 378 220 L 377 219 Z M 361 224 L 361 225 L 362 225 L 361 224 Z M 392 224 L 391 228 L 392 228 L 392 224 Z M 344 229 L 344 230 L 345 230 L 344 229 Z M 339 231 L 338 233 L 339 233 L 339 231 Z M 364 245 L 364 246 L 365 246 L 364 245 Z M 379 245 L 379 246 L 380 246 L 379 245 Z " /><path desc="l 4 p 58" fill="rgb(0,0,0)" stroke="rgb(0,0,0)" stroke-width="1" opacity="0.9882352941176471" d="M 288.5 229 Q 291.1 228.2 290 231.5 L 289 234.5 L 291 234.5 L 297 253 L 295 253.5 L 296.5 257 L 298 256.5 Q 300.5 258.5 300 263.5 L 299 265.5 L 301 265.5 L 306 280.5 L 304 281.5 L 305.5 284 L 306.5 282 L 309 290.5 L 308 293.5 L 309 293.5 L 309.5 292 L 312 299.5 L 311 302.5 L 313 302.5 L 312.5 304 Q 315.1 303.2 314 306.5 L 315 309.5 L 314 312.5 L 315 312.5 L 315.5 311 L 319 321.5 L 316.5 322 L 310 320 L 309.5 318 L 308 318.5 L 308.5 317 L 305.5 318 L 295 310.5 L 294.5 308 L 293.5 310 Q 280.5 300 275 282.5 L 276 278.5 L 275 278.5 L 274.5 280 L 272 269.5 L 272 262.5 L 274.5 253 L 276 253.5 L 277 250.5 L 275 250 L 280.5 239 L 283 238.5 L 281 237.5 Q 283.5 232.7 286 234.5 L 285 232.5 L 288.5 229 Z M 288 231 L 288 232 L 289 232 L 288 231 Z M 288 235 L 286 238 Q 288 243 285 245 L 286 259 L 288 259 L 288 250 L 292 250 L 291 248 L 291 246 L 287 246 Q 286 242 288 241 L 288 235 Z M 293 243 L 292 245 L 293 245 L 293 243 Z M 275 258 L 274 260 L 275 260 L 275 258 Z M 286 264 L 286 269 L 293 269 Q 294 266 290 267 L 290 264 L 286 264 Z M 283 269 L 283 270 L 285 270 L 283 269 Z M 275 272 L 274 274 L 275 274 L 275 272 Z M 286 274 L 286 282 L 284 282 L 284 285 L 284 286 L 286 286 L 286 292 L 284 293 L 286 293 Q 285 297 288 298 Q 289 296 294 297 L 295 299 Q 298 296 296 289 L 293 288 L 293 283 L 288 283 L 288 275 L 291 275 L 286 274 Z M 278 276 L 278 277 L 279 277 L 278 276 Z M 294 281 L 294 282 L 295 282 L 294 281 Z M 289 302 L 288 304 L 289 304 L 289 302 Z M 307 307 L 308 315 Q 309 317 313 316 Q 314 312 311 313 L 311 309 Q 310 306 307 307 Z M 313 319 L 313 320 L 314 320 L 313 319 Z " /><path desc="l 7 p 0" fill="rgb(0,0,0)" stroke="rgb(0,0,0)" stroke-width="1" opacity="0.996078431372549" d="M 307.5 93 L 308 94.5 L 307 94.5 L 307.5 93 Z " /><path desc="l 7 p 1" fill="rgb(0,0,0)" stroke="rgb(0,0,0)" stroke-width="1" opacity="0.996078431372549" d="M 312.5 96 L 313 98.5 L 312 98.5 L 312.5 96 Z " /><path desc="l 7 p 2" fill="rgb(0,0,0)" stroke="rgb(0,0,0)" stroke-width="1" opacity="0.996078431372549" d="M 289.5 100 L 296 100.5 L 288.5 102 L 289.5 100 Z " /><path desc="l 7 p 3" fill="rgb(0,0,0)" stroke="rgb(0,0,0)" stroke-width="1" opacity="0.996078431372549" d="M 278.5 104 L 280 104.5 L 278.5 105 L 278.5 104 Z " /><path desc="l 7 p 4" fill="rgb(0,0,0)" stroke="rgb(0,0,0)" stroke-width="1" opacity="0.996078431372549" d="M 292.5 104 L 293 109 Q 288.5 110.5 290 106 L 286.5 106 L 286.5 105 Q 291.3 106.3 292.5 104 Z " /><path desc="l 7 p 5" fill="rgb(0,0,0)" stroke="rgb(0,0,0)" stroke-width="1" opacity="0.996078431372549" d="M 302.5 107 L 305 107.5 L 302.5 108 L 302.5 107 Z " /><path desc="l 7 p 6" fill="rgb(0,0,0)" stroke="rgb(0,0,0)" stroke-width="1" opacity="0.996078431372549" d="M 310.5 108 L 311 110 Q 314.3 108.7 313 113.5 L 312 114.5 L 312 122.5 L 313 125 L 305.5 124 Q 304.5 126 303.5 124 L 300.5 123 L 286 123 Q 287.1 120.3 284.5 121 L 284.5 120 L 286 119.5 L 286 111 L 288 111 L 288 118 Q 292.1 116.7 291 120 L 294.5 120 L 295.5 121 L 302 121 L 302 123 L 307 123 L 307 109.5 L 309.5 109 L 310.5 108 Z " /><path desc="l 7 p 7" fill="rgb(0,0,0)" stroke="rgb(0,0,0)" stroke-width="1" opacity="0.996078431372549" d="M 277.5 110 L 280 110.5 L 277.5 111 L 277.5 110 Z " /><path desc="l 7 p 8" fill="rgb(0,0,0)" stroke="rgb(0,0,0)" stroke-width="1" opacity="0.996078431372549" d="M 331 111 L 333 111.5 L 331 112.5 L 331 111 Z " /><path desc="l 7 p 10" fill="rgb(0,0,0)" stroke="rgb(0,0,0)" stroke-width="1" opacity="0.996078431372549" d="M 269.5 121 L 271 121.5 L 269.5 122 L 269.5 121 Z " /><path desc="l 7 p 11" fill="rgb(0,0,0)" stroke="rgb(0,0,0)" stroke-width="1" opacity="0.996078431372549" d="M 351.5 121 L 353 121.5 L 351.5 122 L 351.5 121 Z " /><path desc="l 7 p 12" fill="rgb(0,0,0)" stroke="rgb(0,0,0)" stroke-width="1" opacity="0.996078431372549" d="M 283.5 124 L 286 124.5 L 283.5 125 L 283.5 124 Z " /><path desc="l 7 p 13" fill="rgb(0,0,0)" stroke="rgb(0,0,0)" stroke-width="1" opacity="0.996078431372549" d="M 302.5 126 L 304 126.5 L 302.5 127 L 302.5 126 Z " /><path desc="l 7 p 14" fill="rgb(0,0,0)" stroke="rgb(0,0,0)" stroke-width="1" opacity="0.996078431372549" d="M 309.5 127 L 312 127.5 L 309.5 128 L 309.5 127 Z " /><path desc="l 7 p 15" fill="rgb(0,0,0)" stroke="rgb(0,0,0)" stroke-width="1" opacity="0.996078431372549" d="M 321.5 128 L 322 129.5 L 321 129.5 L 321.5 128 Z " /><path desc="l 7 p 16" fill="rgb(0,0,0)" stroke="rgb(0,0,0)" stroke-width="1" opacity="0.996078431372549" d="M 333.5 152 L 334 154.5 L 333 154.5 L 333.5 152 Z " /><path desc="l 7 p 17" fill="rgb(0,0,0)" stroke="rgb(0,0,0)" stroke-width="1" opacity="0.996078431372549" d="M 247.5 166 L 250 166.5 L 247.5 167 L 247.5 166 Z " /><path desc="l 7 p 18" fill="rgb(0,0,0)" stroke="rgb(0,0,0)" stroke-width="1" opacity="0.996078431372549" d="M 251.5 166 L 258 166.5 L 251.5 167 L 251.5 166 Z " /><path desc="l 7 p 19" fill="rgb(0,0,0)" stroke="rgb(0,0,0)" stroke-width="1" opacity="0.996078431372549" d="M 243 171 L 251 171.5 Q 248 173.8 243 173 L 243 171 Z " /><path desc="l 7 p 20" fill="rgb(0,0,0)" stroke="rgb(0,0,0)" stroke-width="1" opacity="0.996078431372549" d="M 275.5 172 L 277 172.5 L 275.5 173 L 275.5 172 Z " /><path desc="l 7 p 21" fill="rgb(0,0,0)" stroke="rgb(0,0,0)" stroke-width="1" opacity="0.996078431372549" d="M 253.5 174 L 256 174.5 L 253.5 175 L 253.5 174 Z " /><path desc="l 7 p 22" fill="rgb(0,0,0)" stroke="rgb(0,0,0)" stroke-width="1" opacity="0.996078431372549" d="M 309.5 179 L 311 179.5 L 309.5 180 L 309.5 179 Z " /><path desc="l 7 p 23" fill="rgb(0,0,0)" stroke="rgb(0,0,0)" stroke-width="1" opacity="0.996078431372549" d="M 312.5 179 L 315 179.5 L 312.5 180 L 312.5 179 Z " /><path desc="l 7 p 24" fill="rgb(0,0,0)" stroke="rgb(0,0,0)" stroke-width="1" opacity="0.996078431372549" d="M 311.5 182 L 314 183.5 Q 315.5 190.5 312 189.5 L 312 196.5 L 313 197.5 L 313 205 L 310 204.5 Q 312.3 203.1 311 199 L 307 199 L 307 192 L 310 190.5 L 309 183 L 311.5 182 Z " /><path desc="l 7 p 25" fill="rgb(0,0,0)" stroke="rgb(0,0,0)" stroke-width="1" opacity="0.996078431372549" d="M 301.5 184 L 302 193 Q 299.3 194.1 300 191.5 L 301 190.5 L 301.5 184 Z " /><path desc="l 7 p 26" fill="rgb(0,0,0)" stroke="rgb(0,0,0)" stroke-width="1" opacity="0.996078431372549" d="M 253.5 186 L 254 188 L 248 187.5 L 253.5 186 Z " /><path desc="l 7 p 27" fill="rgb(0,0,0)" stroke="rgb(0,0,0)" stroke-width="1" opacity="0.996078431372549" d="M 254.5 189 L 256 189.5 L 254.5 190 L 254.5 189 Z " /><path desc="l 7 p 28" fill="rgb(0,0,0)" stroke="rgb(0,0,0)" stroke-width="1" opacity="0.996078431372549" d="M 319.5 189 Q 322.3 190.3 320 191.5 L 320 196 Q 322.7 194.9 322 197.5 L 321 202 Q 317.3 203.3 319 197.5 Q 317 196.5 319 195.5 Q 320.9 190.1 317.5 191 L 317.5 190 L 319.5 189 Z " /><path desc="l 7 p 29" fill="rgb(0,0,0)" stroke="rgb(0,0,0)" stroke-width="1" opacity="0.996078431372549" d="M 293 190 L 296 190.5 Q 293.8 191.8 295 196 L 298 196.5 L 296 197 Q 294.5 199.8 295 205.5 L 297 212 L 302 212 L 302 215.5 L 300 214.5 Q 300.9 211.5 296.5 213 Q 293.9 214.4 294.5 219 L 293 213 Q 287.4 215.2 289 209.5 Q 285.5 207.8 287 202 L 290 202 L 290 196.5 L 293 196 L 293 190 Z " /><path desc="l 7 p 30" fill="rgb(0,0,0)" stroke="rgb(0,0,0)" stroke-width="1" opacity="0.996078431372549" d="M 288.5 191 L 289 192.5 L 288 192.5 L 288.5 191 Z " /><path desc="l 7 p 31" fill="rgb(0,0,0)" stroke="rgb(0,0,0)" stroke-width="1" opacity="0.996078431372549" d="M 243.5 192 L 242.5 194 L 241 193.5 L 243.5 192 Z " /><path desc="l 7 p 32" fill="rgb(0,0,0)" stroke="rgb(0,0,0)" stroke-width="1" opacity="0.996078431372549" d="M 215.5 195 L 216 197.5 L 215 197.5 L 215.5 195 Z " /><path desc="l 7 p 33" fill="rgb(0,0,0)" stroke="rgb(0,0,0)" stroke-width="1" opacity="0.996078431372549" d="M 285.5 200 L 286 208.5 L 285 208.5 L 285.5 200 Z " /><path desc="l 7 p 34" fill="rgb(0,0,0)" stroke="rgb(0,0,0)" stroke-width="1" opacity="0.996078431372549" d="M 300 203 Q 303.3 201.7 302 206.5 L 301 206.5 L 300 203 Z " /><path desc="l 7 p 35" fill="rgb(0,0,0)" stroke="rgb(0,0,0)" stroke-width="1" opacity="0.996078431372549" d="M 419.5 206 L 422 206.5 L 419.5 207 L 419.5 206 Z " /><path desc="l 7 p 36" fill="rgb(0,0,0)" stroke="rgb(0,0,0)" stroke-width="1" opacity="0.996078431372549" d="M 421.5 208 L 422 211.5 L 421 211.5 L 421.5 208 Z " /><path desc="l 7 p 37" fill="rgb(0,0,0)" stroke="rgb(0,0,0)" stroke-width="1" opacity="0.996078431372549" d="M 311.5 210 L 313 213.5 L 312 214.5 L 312 222.5 Q 314.8 223.6 314 227 Q 311.3 225.9 312 228.5 L 311 228.5 L 311 223 Q 305.4 224.9 307 220 Q 311.5 221.8 310 216.5 L 311.5 210 Z " /><path desc="l 7 p 38" fill="rgb(0,0,0)" stroke="rgb(0,0,0)" stroke-width="1" opacity="0.996078431372549" d="M 288.5 216 L 289 217.5 L 288 217.5 L 288.5 216 Z " /><path desc="l 7 p 39" fill="rgb(0,0,0)" stroke="rgb(0,0,0)" stroke-width="1" opacity="0.996078431372549" d="M 363.5 222 L 367 222.5 L 363.5 223 L 363.5 222 Z " /><path desc="l 7 p 40" fill="rgb(0,0,0)" stroke="rgb(0,0,0)" stroke-width="1" opacity="0.996078431372549" d="M 414.5 223 L 415 224.5 L 414 224.5 L 414.5 223 Z " /><path desc="l 7 p 41" fill="rgb(0,0,0)" stroke="rgb(0,0,0)" stroke-width="1" opacity="0.996078431372549" d="M 391.5 224 L 392 227.5 L 391 227.5 L 391.5 224 Z " /><path desc="l 7 p 42" fill="rgb(0,0,0)" stroke="rgb(0,0,0)" stroke-width="1" opacity="0.996078431372549" d="M 353.5 225 L 354 226.5 L 353 226.5 L 353.5 225 Z " /><path desc="l 7 p 43" fill="rgb(0,0,0)" stroke="rgb(0,0,0)" stroke-width="1" opacity="0.996078431372549" d="M 355.5 225 L 357 225.5 L 355.5 226 L 355.5 225 Z " /><path desc="l 7 p 44" fill="rgb(0,0,0)" stroke="rgb(0,0,0)" stroke-width="1" opacity="0.996078431372549" d="M 323.5 227 L 325 227.5 L 323.5 228 L 323.5 227 Z " /><path desc="l 7 p 45" fill="rgb(0,0,0)" stroke="rgb(0,0,0)" stroke-width="1" opacity="0.996078431372549" d="M 310.5 230 L 315 230.5 L 310.5 231 L 310.5 230 Z " /><path desc="l 7 p 46" fill="rgb(0,0,0)" stroke="rgb(0,0,0)" stroke-width="1" opacity="0.996078431372549" d="M 287.5 231 L 290 232.5 L 289.5 235 L 289 232 L 285.5 234 L 287.5 231 Z " /><path desc="l 7 p 47" fill="rgb(0,0,0)" stroke="rgb(0,0,0)" stroke-width="1" opacity="0.996078431372549" d="M 287.5 235 L 288 240.5 Q 285.8 241.9 287 246 L 291 246 L 291 247.5 L 292 250 L 288 250 L 288 258.5 L 286 259 L 285 244.5 Q 287.5 243 286 237.5 L 287.5 235 Z " /><path desc="l 7 p 48" fill="rgb(0,0,0)" stroke="rgb(0,0,0)" stroke-width="1" opacity="0.996078431372549" d="M 366.5 246 L 369 246.5 L 366.5 247 L 366.5 246 Z " /><path desc="l 7 p 49" fill="rgb(0,0,0)" stroke="rgb(0,0,0)" stroke-width="1" opacity="0.996078431372549" d="M 372.5 246 L 374 246.5 L 372.5 247 L 372.5 246 Z " /><path desc="l 7 p 50" fill="rgb(0,0,0)" stroke="rgb(0,0,0)" stroke-width="1" opacity="0.996078431372549" d="M 375.5 246 L 378 246.5 L 375.5 247 L 375.5 246 Z " /><path desc="l 7 p 51" fill="rgb(0,0,0)" stroke="rgb(0,0,0)" stroke-width="1" opacity="0.996078431372549" d="M 275.5 250 L 276 252.5 L 275 252.5 L 275.5 250 Z " /><path desc="l 7 p 52" fill="rgb(0,0,0)" stroke="rgb(0,0,0)" stroke-width="1" opacity="0.996078431372549" d="M 296.5 253 L 297 255.5 L 296 255.5 L 296.5 253 Z " /><path desc="l 7 p 53" fill="rgb(0,0,0)" stroke="rgb(0,0,0)" stroke-width="1" opacity="0.996078431372549" d="M 286 264 L 290 264 L 290 267 Q 294.1 265.7 293 269 L 286 269 L 286 264 Z " /><path desc="l 7 p 54" fill="rgb(0,0,0)" stroke="rgb(0,0,0)" stroke-width="1" opacity="0.996078431372549" d="M 282.5 269 L 285 269.5 L 282.5 270 L 282.5 269 Z " /><path desc="l 7 p 55" fill="rgb(0,0,0)" stroke="rgb(0,0,0)" stroke-width="1" opacity="0.996078431372549" d="M 286 274 L 291 274.5 L 288 275 L 288 283 L 293 283 L 293 287.5 L 296 289 Q 297.5 295.9 294.5 299 L 294 297 Q 289.1 295.5 287.5 298 Q 285 296.8 286 293 L 284 292.5 L 286 292 L 286 286 L 283.5 286 L 284 284.5 L 284 282 L 286 281.5 L 286 274 Z M 289 291 Q 287 298 293 296 Q 295 289 289 291 Z " /><path desc="l 7 p 56" fill="rgb(0,0,0)" stroke="rgb(0,0,0)" stroke-width="1" opacity="0.996078431372549" d="M 277.5 276 L 279 276.5 L 277.5 277 L 277.5 276 Z " /><path desc="l 7 p 57" fill="rgb(0,0,0)" stroke="rgb(0,0,0)" stroke-width="1" opacity="0.996078431372549" d="M 275.5 279 L 276 281.5 L 275 281.5 L 275.5 279 Z " /><path desc="l 7 p 58" fill="rgb(0,0,0)" stroke="rgb(0,0,0)" stroke-width="1" opacity="0.996078431372549" d="M 293.5 281 L 295 281.5 L 293.5 282 L 293.5 281 Z " /><path desc="l 7 p 59" fill="rgb(0,0,0)" stroke="rgb(0,0,0)" stroke-width="1" opacity="0.996078431372549" d="M 305.5 281 L 306 283.5 L 305 283.5 L 305.5 281 Z " /><path desc="l 7 p 61" fill="rgb(0,0,0)" stroke="rgb(0,0,0)" stroke-width="1" opacity="0.996078431372549" d="M 308.5 291 L 309 292.5 L 308 292.5 L 308.5 291 Z " /><path desc="l 7 p 63" fill="rgb(0,0,0)" stroke="rgb(0,0,0)" stroke-width="1" opacity="0.996078431372549" d="M 311.5 300 L 313 303.5 L 311 302.5 L 311.5 300 Z " /><path desc="l 7 p 64" fill="rgb(0,0,0)" stroke="rgb(0,0,0)" stroke-width="1" opacity="0.996078431372549" d="M 307 307 Q 310 306.3 311 308.5 L 311 312.5 Q 314 311.8 313 316 Q 309.2 317 308 314.5 L 307 307 Z " /><path desc="l 7 p 65" fill="rgb(0,0,0)" stroke="rgb(0,0,0)" stroke-width="1" opacity="0.996078431372549" d="M 314.5 310 L 315 311.5 L 314 311.5 L 314.5 310 Z " /></svg>