<svg viewBox="0 0 600 400" version="1.1" xmlns="http://www.w3.org/2000/svg" desc="Created with imagetracer.js version 1.2.6" ><path desc="l 0 p 0" fill="rgb(30,30,30)" stroke="rgb(30,30,30)" stroke-width="1" opacity="0.996078431372549" d="M 293.5 71 L 304.5 77 L 315.5 80 L 328 87.5 L 319 91.5 L 323 101.5 L 323 112.5 Q 320.1 122.1 313.5 128 Q 310.5 128.9 312 124.5 L 309 118.5 L 302 94 L 284.5 93 L 263 87.5 Q 269.8 81.3 279.5 78 L 294 76 L 293.5 71 Z " /><path desc="l 0 p 1" fill="rgb(30,30,30)" stroke="rgb(30,30,30)" stroke-width="1" opacity="0.996078431372549" d="M 255.5 116 Q 272.7 115.8 280 125.5 Q 280.8 128.1 277.5 127 L 223 143 Q 225.7 133.5 232.5 127 Q 240.8 118.3 255.5 116 Z " /><path desc="l 0 p 2" fill="rgb(30,30,30)" stroke="rgb(30,30,30)" stroke-width="1" opacity="0.996078431372549" d="M 291.5 125 Q 304.2 124.3 309 131.5 Q 313.9 135.6 312 146.5 L 306.5 155 Q 302.2 160.2 291.5 159 L 282 153.5 L 278 146.5 L 278 138.5 L 282 130 L 291.5 125 Z " /><path desc="l 0 p 3" fill="rgb(30,30,30)" stroke="rgb(30,30,30)" stroke-width="1" opacity="0.996078431372549" d="M 364.5 141 Q 368.9 139.5 368 142.5 Q 364 153.5 355.5 160 L 341.5 167 L 329.5 168 L 315.5 163 L 311 158.5 Q 310.2 155.9 313.5 157 L 364.5 141 Z " /><path desc="l 0 p 4" fill="rgb(30,30,30)" stroke="rgb(30,30,30)" stroke-width="1" opacity="0.996078431372549" d="M 279.5 158 Q 281.8 157.3 281 159.5 L 291 188.5 L 298 214.5 L 296.5 214 Q 284.9 211.1 279 202.5 Q 270.2 193.8 270 176.5 L 274 164.5 L 279.5 158 Z " /><path desc="l 0 p 5" fill="rgb(30,30,30)" stroke="rgb(30,30,30)" stroke-width="1" opacity="0.996078431372549" d="M 297.5 228 Q 310.6 226.8 315 234.5 Q 318.3 239.2 317 248.5 Q 315.2 255.7 309.5 259 Q 304.8 261.3 296.5 260 Q 290.4 258.6 288 253.5 L 286 247.5 L 286 241.5 Q 287.2 233.7 292.5 230 L 297.5 228 Z M 299 234 L 297 235 L 293 241 L 294 251 L 300 255 L 306 254 L 310 249 Q 312 241 309 238 Q 307 232 299 234 Z " /><path desc="l 0 p 6" fill="rgb(30,30,30)" stroke="rgb(30,30,30)" stroke-width="1" opacity="0.996078431372549" d="M 203.5 229 L 210.5 229 L 211 230.5 L 223 260 L 216.5 260 L 215 258.5 L 212.5 253 L 200.5 253 L 200 254.5 L 198 260 L 191.5 260 L 191 258.5 L 203.5 229 Z M 207 237 L 203 246 L 203 248 L 211 248 Q 210 241 207 237 Z " /><path desc="l 0 p 7" fill="rgb(30,30,30)" stroke="rgb(30,30,30)" stroke-width="1" opacity="0.996078431372549" d="M 226 229 L 249.5 229 L 250 234 L 233 234 L 233 241 L 248.5 241 L 249 246 L 233 246 L 233 255 L 249.5 255 L 250 260 L 226 260 L 226 229 Z " /><path desc="l 0 p 8" fill="rgb(30,30,30)" stroke="rgb(30,30,30)" stroke-width="1" opacity="0.996078431372549" d="M 256 229 L 276.5 229 L 280 231.5 Q 282.7 233.8 282 239.5 L 277.5 245 L 274 246.5 L 277 248 L 284 259.5 L 276.5 260 L 269 248 L 262 247 L 262 260 L 256 260 L 256 229 Z M 262 234 L 262 241 L 264 242 Q 270 243 274 241 Q 276 240 275 237 L 273 234 L 262 234 Z " /><path desc="l 0 p 9" fill="rgb(30,30,30)" stroke="rgb(30,30,30)" stroke-width="1" opacity="0.996078431372549" d="M 322 229 L 343.5 229 L 344 234 L 328 234 L 328 241 L 340.5 241 L 342 242.5 L 342 247 L 328 247 L 328 260 L 322 260 L 322 229 Z " /><path desc="l 0 p 10" fill="rgb(30,30,30)" stroke="rgb(30,30,30)" stroke-width="1" opacity="0.996078431372549" d="M 355 229 L 362.5 229 L 363 230.5 L 375 259.5 L 368.5 260 L 364.5 253 L 352.5 253 L 352 255.5 L 350 260 L 343.5 260 L 343 258.5 L 355 229 Z M 359 237 L 355 248 L 362 248 L 363 247 L 359 237 Z " /><path desc="l 0 p 11" fill="rgb(30,30,30)" stroke="rgb(30,30,30)" stroke-width="1" opacity="0.996078431372549" d="M 378 229 Q 384.1 227.3 386 230.5 L 396 248 L 398 247.5 L 398 229 L 404 229 L 404 259.5 Q 403.8 260.8 397.5 260 L 384.5 241 L 384 260 L 378.5 260 L 378 259.5 L 378 229 Z " /><path desc="l 0 p 16" fill="rgb(30,30,30)" stroke="rgb(30,30,30)" stroke-width="1" opacity="0.996078431372549" d="M 189.5 275 L 254.5 275 L 255 276.5 L 253.5 278 L 189.5 278 Q 186.5 276.5 189.5 275 Z " /><path desc="l 0 p 17" fill="rgb(30,30,30)" stroke="rgb(30,30,30)" stroke-width="1" opacity="0.996078431372549" d="M 342 275 L 408.5 275 L 409 276.5 L 407.5 278 L 342 278 L 342 275 Z " /><path desc="l 0 p 18" fill="rgb(30,30,30)" stroke="rgb(30,30,30)" stroke-width="1" opacity="0.996078431372549" d="M 260 283 L 273.5 283 L 274 285 L 268 285 L 268 300.5 L 266 301 L 266 285 L 260 285 L 260 283 Z " /><path desc="l 0 p 19" fill="rgb(30,30,30)" stroke="rgb(30,30,30)" stroke-width="1" opacity="0.996078431372549" d="M 279 283 L 291.5 283 L 292 285 L 282 285 L 282 291 L 292 291.5 L 290.5 293 L 281 293 Q 279.8 297.6 282.5 299 L 292.5 299 L 293 301 L 279 301 L 279 283 Z " /><path desc="l 0 p 20" fill="rgb(30,30,30)" stroke="rgb(30,30,30)" stroke-width="1" opacity="0.996078431372549" d="M 302.5 283 Q 311 281 313 285.5 L 314 287.5 L 311.5 288 Q 310.3 283.8 303.5 285 Q 299 287 301 295.5 L 303.5 299 L 308.5 299 L 314 295 L 310.5 301 Q 301 303 299 297.5 L 298 288.5 L 302.5 283 Z " /><path desc="l 0 p 21" fill="rgb(30,30,30)" stroke="rgb(30,30,30)" stroke-width="1" opacity="0.996078431372549" d="M 320 283 L 322 283.5 L 322 290 L 332 290 L 332 283.5 L 334 283 L 334 300.5 L 332 301 L 332 293.5 L 330.5 292 L 322 292 L 322 300.5 L 320 301 L 320 283 Z " /><path desc="l 1 p 0" fill="rgb(254,254,254)" stroke="rgb(254,254,254)" stroke-width="1" opacity="0.996078431372549" d="M 1.5 0 L 600 0 L 600 400 L 0 400 L 0 1.5 L 1.5 0 Z M 293 70 L 293 72 L 292 74 L 294 73 L 294 76 L 293 75 L 284 76 L 287 76 L 287 77 L 284 76 L 279 77 L 279 79 L 278 78 L 275 79 L 277 79 L 277 80 L 274 79 L 274 81 L 273 80 L 268 82 L 266 86 L 266 85 L 265 84 Q 261 85 262 89 L 265 88 L 265 90 L 269 89 L 269 91 L 273 90 L 274 91 L 273 91 L 273 92 L 277 91 L 279 92 L 277 92 L 277 93 Q 281 94 283 92 L 284 93 L 283 93 L 283 94 Q 288 96 290 93 L 292 94 L 290 94 L 290 95 L 301 95 L 302 94 L 301 96 L 302 101 L 304 101 L 303 104 L 305 103 L 304 105 L 305 108 L 305 107 L 306 107 L 305 109 L 306 113 L 308 112 L 307 114 L 308 117 L 308 116 L 309 116 L 308 120 L 310 119 L 309 121 L 311 126 L 311 125 L 312 125 L 311 129 L 313 128 L 315 129 Q 317 128 315 127 L 317 127 L 319 124 L 317 124 Q 318 121 320 123 L 322 120 L 321 117 L 323 117 L 322 114 L 324 114 L 323 109 L 324 105 L 324 99 L 323 101 L 322 101 L 323 99 L 322 95 L 320 95 L 321 92 L 321 90 L 324 91 L 324 89 L 327 90 L 326 89 L 328 89 Q 330 90 329 87 L 324 83 L 324 85 Q 321 84 323 83 L 321 81 L 319 82 L 319 80 L 317 81 L 317 79 L 315 80 L 313 80 L 315 79 L 315 78 L 312 79 L 312 77 L 309 78 L 309 76 L 306 77 L 304 77 L 306 76 L 304 74 L 302 75 L 302 73 L 300 74 L 300 72 L 298 73 L 296 73 L 298 72 L 298 71 L 295 72 L 295 71 L 293 70 Z M 253 115 Q 252 117 255 116 L 255 117 L 252 116 L 244 118 L 244 120 L 242 119 L 242 121 L 241 120 L 238 121 Q 235 122 237 124 L 234 127 L 236 124 L 235 123 L 226 134 L 228 134 L 225 135 L 226 137 L 224 137 L 225 139 L 223 139 L 224 141 L 223 140 L 222 143 L 224 144 L 223 144 L 223 145 L 231 143 L 230 142 L 232 142 L 235 142 L 234 141 L 234 140 L 236 141 L 241 140 L 240 139 L 242 139 L 245 139 L 244 138 L 244 137 L 248 138 L 248 136 L 251 137 L 250 136 L 252 136 L 255 136 L 254 135 L 254 134 L 258 135 L 257 134 L 259 134 L 268 132 L 267 131 L 269 131 L 278 129 L 277 128 L 279 128 Q 284 130 282 125 L 279 122 L 281 126 L 281 127 L 280 126 L 277 123 Q 279 121 277 120 L 275 121 L 274 118 L 271 119 L 271 118 L 269 116 L 265 117 L 261 117 L 265 116 L 253 115 Z M 291 124 L 291 126 L 288 125 L 288 127 L 286 126 Q 287 128 284 130 L 285 128 L 284 127 L 280 132 L 282 132 L 279 133 L 280 135 L 279 134 L 277 137 L 278 142 L 277 144 L 278 151 L 282 153 L 281 152 L 280 154 L 285 157 L 285 155 L 286 158 L 288 157 L 288 159 L 290 158 L 291 159 L 290 159 L 290 160 L 295 159 L 297 160 L 301 160 L 300 159 L 300 158 L 303 159 L 303 157 L 305 158 L 306 155 L 306 157 L 310 154 L 309 152 L 312 151 L 311 148 L 313 148 L 312 145 L 313 136 L 312 136 L 312 135 L 311 132 Q 306 122 291 124 Z M 314 139 L 313 145 L 314 145 L 314 139 Z M 367 139 L 367 140 Q 370 139 369 142 L 370 142 Q 371 137 367 139 Z M 363 140 L 364 141 L 364 142 L 360 141 L 360 143 L 357 142 L 357 144 L 356 143 L 352 144 L 354 144 L 354 145 L 350 144 L 350 146 L 347 145 L 347 147 L 346 146 L 342 147 L 344 147 L 344 148 L 340 147 L 340 149 L 337 148 L 337 150 L 334 149 L 334 151 L 333 150 L 329 151 L 331 151 L 331 152 L 327 151 L 327 153 L 326 152 L 319 154 L 321 154 L 321 155 L 319 154 L 315 155 L 317 155 L 317 156 L 315 155 L 310 157 L 311 159 L 314 162 Q 312 163 315 164 L 317 163 L 316 165 L 320 167 L 323 166 L 324 167 L 323 167 L 323 168 L 328 167 L 329 168 L 328 168 L 328 169 L 339 169 L 338 168 L 338 167 L 340 168 L 344 168 L 343 167 L 343 166 L 345 167 L 356 162 L 359 159 L 358 158 L 360 158 L 364 153 L 362 153 Q 363 150 365 152 L 366 150 L 364 150 L 367 149 L 366 147 L 368 147 L 369 143 Q 368 139 363 140 Z M 279 157 L 274 163 L 276 163 L 272 165 L 273 168 L 271 168 L 272 171 L 270 171 L 271 175 L 271 176 L 270 175 L 269 175 L 270 185 L 270 183 L 271 183 L 270 189 L 272 189 L 271 192 L 273 191 L 272 193 L 273 197 Q 274 199 276 197 L 275 199 L 276 202 L 286 210 L 286 208 L 288 212 L 290 211 L 290 213 L 292 212 L 292 214 L 294 213 L 295 214 L 294 214 L 294 215 L 297 214 L 296 216 L 299 216 L 298 215 L 299 211 L 297 211 L 298 208 L 297 208 L 297 207 L 297 203 L 296 205 L 295 205 L 296 203 L 296 200 L 295 202 L 294 202 L 295 198 L 293 198 L 294 195 L 293 195 L 293 194 L 293 190 L 292 192 L 291 192 L 292 188 L 291 188 L 291 187 L 290 181 L 289 183 L 288 183 L 289 181 L 289 177 L 288 179 L 287 179 L 288 177 L 286 168 L 285 170 L 284 170 L 285 166 L 283 166 L 284 163 L 282 163 L 283 160 L 281 160 L 282 158 L 281 158 L 279 157 Z M 204 227 L 204 228 L 211 228 L 204 227 Z M 227 227 L 227 228 L 250 228 L 227 227 Z M 256 227 L 256 228 L 273 228 L 256 227 Z M 297 227 L 297 229 L 294 228 L 294 230 L 292 229 L 286 236 L 287 240 L 287 241 L 286 240 L 285 240 L 286 250 L 286 249 L 287 249 L 286 253 L 288 253 L 287 255 Q 288 257 290 255 L 293 260 L 295 259 L 296 260 L 295 260 L 295 261 L 300 260 L 305 261 L 309 261 L 308 260 L 308 259 L 311 260 L 310 259 L 315 254 Q 316 256 317 254 L 316 251 L 317 249 L 318 251 L 318 239 L 317 239 L 317 238 Q 316 231 312 229 L 310 230 L 308 230 L 310 229 Q 305 226 297 227 Z M 321 227 L 321 261 L 322 261 L 329 261 L 328 260 L 329 247 L 329 260 L 330 260 L 330 248 L 343 248 L 343 240 L 330 240 L 330 235 L 329 241 L 328 234 L 342 234 L 343 235 L 345 235 L 345 229 L 344 229 L 322 229 L 344 228 L 321 227 Z M 356 227 L 356 228 L 363 228 L 356 227 Z M 377 227 L 377 261 L 378 261 L 385 261 L 384 260 L 385 241 L 386 259 L 386 247 Q 388 244 389 247 L 388 246 L 387 248 L 391 250 L 390 249 L 389 251 L 392 252 L 391 254 L 394 255 L 393 257 L 395 256 L 394 258 L 397 261 L 405 261 L 405 261 L 405 227 L 397 228 L 404 228 L 404 229 L 398 229 L 398 248 L 397 248 L 397 247 L 397 228 L 396 243 Q 395 246 393 243 L 395 243 L 395 242 L 391 240 L 393 240 L 393 239 L 390 238 L 391 236 L 388 235 L 389 233 L 386 232 L 388 232 L 388 231 Q 386 226 385 229 L 378 229 L 385 228 L 377 227 Z M 203 228 L 201 230 L 202 233 L 201 232 L 199 235 L 200 238 L 198 238 L 199 240 L 199 241 L 198 240 L 197 240 L 198 243 L 197 242 L 195 245 L 196 248 L 194 248 L 195 250 L 195 251 L 194 250 L 193 250 L 194 253 L 193 252 L 191 255 L 192 258 L 190 258 L 190 261 L 199 261 L 198 260 L 199 258 L 200 260 L 201 255 L 201 253 L 202 254 L 212 254 L 214 261 L 224 261 L 224 258 L 222 258 L 223 256 L 222 256 L 222 255 L 222 252 L 221 254 L 220 254 L 221 252 L 219 246 L 218 246 L 218 245 L 218 242 L 217 244 L 216 244 L 217 242 L 215 236 L 213 236 L 214 233 L 212 233 L 213 230 Q 212 227 211 229 Q 204 231 203 228 Z M 226 228 L 225 261 L 251 261 L 250 255 L 233 255 L 250 254 L 251 255 L 251 253 L 234 253 L 234 247 L 250 247 L 250 240 L 248 241 L 233 241 L 248 240 L 234 239 L 235 235 L 251 235 L 251 229 L 250 229 L 227 229 L 226 228 Z M 255 228 L 254 260 L 255 260 L 255 228 Z M 274 228 L 273 229 L 256 229 L 256 260 L 255 261 L 263 261 L 262 260 L 263 247 L 264 260 L 264 249 L 266 247 L 267 248 L 265 249 L 267 249 L 269 253 Q 271 256 273 255 L 272 257 Q 273 259 275 257 L 274 259 L 276 261 L 285 261 L 285 258 L 281 256 L 283 256 L 283 255 Q 282 252 281 254 L 281 253 L 279 249 L 277 245 L 279 246 L 278 245 Q 280 241 282 243 L 281 241 L 283 241 L 283 235 L 282 235 L 282 234 Q 282 230 280 229 L 278 230 L 278 229 L 274 228 Z M 355 228 L 351 235 L 352 238 L 352 239 L 351 238 L 350 238 L 351 241 L 349 241 L 350 243 L 349 242 L 347 245 L 348 248 L 348 249 L 347 248 L 346 248 L 347 251 L 345 251 L 346 253 L 345 252 L 343 255 L 344 258 L 343 257 L 342 261 L 351 261 L 352 260 L 351 257 L 353 257 L 353 255 L 353 253 L 354 254 L 364 254 L 366 255 L 365 258 L 367 257 L 366 259 L 367 261 L 376 261 L 375 256 L 373 256 L 374 253 L 373 253 L 373 252 L 372 247 L 371 249 L 370 249 L 371 246 L 370 246 L 370 245 L 369 241 L 368 241 L 368 240 L 368 237 L 367 239 L 366 239 L 367 236 L 366 236 L 366 235 L 365 231 L 363 231 L 364 229 L 363 229 Q 356 231 355 228 Z M 281 243 L 279 245 L 281 245 L 281 243 Z M 252 255 L 251 260 L 252 260 L 252 255 Z M 315 255 L 312 259 L 315 257 L 315 255 Z M 300 261 L 300 262 L 304 262 L 300 261 Z M 187 274 L 187 279 L 256 279 L 256 278 L 255 278 L 256 276 L 256 274 L 187 274 Z M 341 274 L 342 279 L 410 279 L 410 274 L 341 274 Z M 306 281 L 306 282 L 308 282 L 306 281 Z M 258 282 L 258 286 L 264 286 L 265 301 L 265 286 L 266 286 L 266 301 L 268 301 L 269 285 L 275 286 L 275 282 L 258 282 Z M 278 282 L 279 302 L 280 301 L 293 301 L 294 302 L 294 298 L 284 298 Q 282 300 281 298 L 282 293 L 282 298 L 283 298 L 283 294 L 293 294 L 293 291 L 292 291 L 282 291 L 292 290 L 283 289 L 284 286 L 293 286 L 292 285 L 293 283 L 278 282 Z M 302 282 L 302 284 L 298 286 L 299 288 L 297 288 L 298 292 L 297 297 L 299 297 L 298 299 L 300 298 L 302 302 L 305 301 L 312 302 Q 316 300 315 294 L 312 296 L 312 294 Q 309 293 310 296 Q 307 297 309 299 L 304 297 L 304 299 L 302 298 L 303 296 L 302 296 L 302 295 Q 303 290 301 289 L 304 285 L 304 287 L 308 286 L 311 289 L 312 288 L 314 289 Q 316 290 315 287 L 313 287 L 314 285 L 313 285 L 312 282 L 308 283 L 302 282 Z M 320 282 L 320 284 L 320 301 L 322 301 L 322 292 L 331 292 L 332 294 L 332 301 L 334 301 L 334 284 L 335 283 L 332 282 L 332 284 L 332 290 L 331 284 L 330 284 L 330 289 L 324 289 L 324 284 L 323 290 L 322 290 Q 321 284 323 283 L 320 282 Z M 319 283 L 318 302 L 320 302 L 319 301 L 319 283 Z M 336 283 L 335 301 L 336 301 L 336 283 Z M 323 293 L 324 300 L 324 294 L 330 294 L 330 301 L 331 301 L 331 293 L 323 293 Z M 283 302 L 283 303 L 285 303 L 283 302 Z M 288 302 L 288 303 L 290 303 L 288 302 Z M 305 302 L 305 303 L 309 303 L 305 302 Z " /><path desc="l 1 p 22" fill="rgb(254,254,254)" stroke="rgb(254,254,254)" stroke-width="1" opacity="0.996078431372549" d="M 262.5 234 L 263.5 241 L 264 235 L 272.5 234 L 272.5 235 L 271 235.5 L 273.5 237 L 275 236.5 L 274 238.5 Q 276.3 239.7 273.5 241 L 268.5 240 L 268.5 241 L 272 241.5 L 263.5 242 Q 260.1 240.1 262.5 234 Z " /><path desc="l 1 p 23" fill="rgb(254,254,254)" stroke="rgb(254,254,254)" stroke-width="1" opacity="0.996078431372549" d="M 298.5 234 L 303.5 235 L 305.5 234 L 305.5 235 L 304 235.5 L 307.5 238 L 309 237.5 L 308 240.5 L 309 240.5 L 309.5 239 L 310 240.5 L 308 249.5 L 308.5 251 L 307.5 250 L 304.5 253 Q 297.5 254.5 296 250.5 L 294.5 247 L 293 247.5 L 294 242.5 L 293 240.5 L 294 240.5 L 294.5 242 L 296 237.5 L 294 237.5 L 297.5 236 L 299 235.5 L 298.5 234 Z " /><path desc="l 1 p 26" fill="rgb(254,254,254)" stroke="rgb(254,254,254)" stroke-width="1" opacity="0.996078431372549" d="M 205.5 239 L 207.5 242 L 208.5 240 L 209 241.5 L 208 244.5 L 208.5 246 Q 204.1 247.5 205 244.5 L 206 241.5 L 205.5 239 Z " /><path desc="l 1 p 27" fill="rgb(254,254,254)" stroke="rgb(254,254,254)" stroke-width="1" opacity="0.996078431372549" d="M 357.5 240 L 360.5 244 L 362 243.5 L 361 246 Q 355.8 248.1 357 243.5 L 356.5 242 L 358 242.5 L 357.5 240 Z " /><path desc="l 1 p 29" fill="rgb(254,254,254)" stroke="rgb(254,254,254)" stroke-width="1" opacity="0.996078431372549" d="M 210.5 246 L 211 248 L 203 247.5 L 210.5 246 Z " /><path desc="l 1 p 30" fill="rgb(254,254,254)" stroke="rgb(254,254,254)" stroke-width="1" opacity="0.996078431372549" d="M 362.5 246 L 361.5 248 L 355 247.5 L 362.5 246 Z " /><path desc="l 1 p 31" fill="rgb(254,254,254)" stroke="rgb(254,254,254)" stroke-width="1" opacity="0.996078431372549" d="M 299.5 254 L 304 254.5 L 299.5 255 L 299.5 254 Z " /><path desc="l 2 p 0" fill="rgb(255,255,255)" stroke="rgb(255,255,255)" stroke-width="1" opacity="1" d="M 292.5 70 L 314.5 78 L 329 86.5 Q 330.1 89.8 327.5 89 L 321 91 L 324 99.5 L 324 104.5 L 323 104.5 L 323 99.5 L 319 91.5 L 328 87.5 L 314.5 79 L 303.5 76 Q 299.9 71.6 292.5 71 L 292.5 70 Z " /><path desc="l 2 p 1" fill="rgb(255,255,255)" stroke="rgb(255,255,255)" stroke-width="1" opacity="1" d="M 292.5 72 L 294 74.5 L 292.5 76 L 284.5 76 L 275.5 79 L 263 87.5 L 264.5 89 L 276.5 92 L 288.5 93 L 289.5 94 L 300.5 94 L 302 95.5 L 312 128.5 L 311 128.5 L 307 113.5 L 301 98.5 L 301 95 L 282.5 94 L 262 89 Q 261.3 85.2 264.5 84 L 280.5 76 L 293 74.5 L 292.5 72 Z " /><path desc="l 2 p 2" fill="rgb(255,255,255)" stroke="rgb(255,255,255)" stroke-width="1" opacity="1" d="M 323.5 109 L 324 113.5 Q 321.6 123.6 314.5 129 L 313 128.5 L 316 127 L 322 116.5 L 323.5 109 Z " /><path desc="l 2 p 3" fill="rgb(255,255,255)" stroke="rgb(255,255,255)" stroke-width="1" opacity="1" d="M 252.5 115 L 268.5 116 L 282 124.5 L 282.5 128 Q 287.8 122.3 300.5 124 Q 307.7 125.8 311 131.5 L 314 139.5 L 314 144.5 Q 312.3 152.8 306.5 157 L 300.5 160 L 296.5 160 L 296.5 159 Q 306.4 158.4 310 151.5 L 313 144.5 L 313 139.5 Q 310.9 131.2 304.5 127 Q 299.8 123.7 290.5 125 Q 283.3 126.8 280 132.5 L 277.5 141 L 277 136.5 L 282 128.5 L 278.5 128 L 222.5 145 L 222.5 144 L 281 127 L 277.5 122 L 264.5 116 L 252.5 116 Q 237 119.5 229 130.5 L 222.5 143 L 222 140.5 Q 226 129.5 234.5 123 Q 241.8 117.3 252.5 115 Z " /><path desc="l 2 p 4" fill="rgb(255,255,255)" stroke="rgb(255,255,255)" stroke-width="1" opacity="1" d="M 366.5 139 Q 371.3 137.3 370 141.5 Q 365.7 154.7 355.5 162 Q 346.3 170.3 327.5 169 L 317.5 166 L 309 158.5 L 310.5 156 L 366.5 139 Z M 367 140 L 323 154 L 316 155 L 313 157 Q 309 156 310 159 Q 316 166 328 168 L 344 167 L 359 158 L 366 149 L 369 142 Q 370 139 367 140 Z " /><path desc="l 2 p 6" fill="rgb(255,255,255)" stroke="rgb(255,255,255)" stroke-width="1" opacity="1" d="M 277.5 143 Q 278.5 153 285.5 157 L 294 159.5 L 289.5 160 L 280 153.5 Q 275.7 149.9 277.5 143 Z " /><path desc="l 2 p 7" fill="rgb(255,255,255)" stroke="rgb(255,255,255)" stroke-width="1" opacity="1" d="M 278.5 157 L 280 157.5 Q 268.7 164.7 270 184.5 Q 274 201.5 286.5 210 Q 291.4 214.5 299 215 L 281 157.5 L 282 157.5 L 300 214.5 L 296.5 216 Q 283.3 211.7 276 201.5 Q 268.3 192.2 269 174.5 L 272 164.5 L 278.5 157 Z " /><path desc="l 2 p 8" fill="rgb(255,255,255)" stroke="rgb(255,255,255)" stroke-width="1" opacity="1" d="M 203.5 227 Q 211.2 225.3 213 229.5 L 224 257.5 L 224 261 L 214.5 261 L 214 258.5 L 212 254 L 201.5 254 L 201 256.5 L 198.5 261 L 190 261 L 190 257.5 L 201 229.5 L 203.5 227 Z M 203 228 L 191 258 L 191 260 L 199 260 L 200 255 L 202 253 L 213 253 L 215 258 L 215 260 L 223 260 L 211 230 L 211 228 L 203 228 Z " /><path desc="l 2 p 9" fill="rgb(255,255,255)" stroke="rgb(255,255,255)" stroke-width="1" opacity="1" d="M 226.5 227 L 249.5 227 L 251 228.5 L 251 235 L 234.5 235 L 234 239 L 247.5 239 L 250 240 L 250 247 L 234 247 L 234 253 L 250.5 253 L 251 254.5 L 252 259.5 L 250.5 261 L 225 261 L 225 228.5 L 226.5 227 Z M 226 228 L 226 260 L 251 260 Q 251 260 251 256 L 250 254 L 233 254 L 233 246 L 249 246 Q 249 246 249 242 L 248 240 L 233 240 L 233 234 L 250 234 L 250 229 L 250 228 L 226 228 Z " /><path desc="l 2 p 10" fill="rgb(255,255,255)" stroke="rgb(255,255,255)" stroke-width="1" opacity="1" d="M 255.5 227 L 272.5 227 L 277.5 228 L 282 231.5 L 283 240.5 L 281 245 L 277 246.5 L 285 257.5 L 285 261 L 275.5 261 L 274 259.5 L 266.5 249 L 264.5 248 L 264 259.5 L 262.5 261 Q 255.8 262.8 254 259.5 L 254 228.5 L 255.5 227 Z M 255 228 L 255 260 L 263 260 L 263 247 L 268 248 L 274 258 L 277 260 L 284 260 L 278 250 L 274 247 L 279 245 L 282 241 L 281 233 L 278 229 L 273 228 L 255 228 Z " /><path desc="l 2 p 11" fill="rgb(255,255,255)" stroke="rgb(255,255,255)" stroke-width="1" opacity="1" d="M 296.5 227 Q 311.5 225 316 233.5 Q 319.7 239.3 318 250.5 L 312.5 259 L 308.5 261 L 299.5 262 L 292.5 260 L 287 254.5 Q 283.6 249.4 285 239.5 Q 286.1 232.1 291.5 229 L 296.5 227 Z M 297 228 L 294 229 Q 288 232 286 240 Q 284 251 289 256 L 295 260 L 300 261 L 311 259 L 317 251 Q 319 239 315 235 L 310 229 L 297 228 Z " /><path desc="l 2 p 12" fill="rgb(255,255,255)" stroke="rgb(255,255,255)" stroke-width="1" opacity="1" d="M 321 227 L 343.5 227 L 345 228.5 L 345 235 L 342.5 235 L 342.5 234 L 344 233.5 L 344 228 L 322 228 L 322 260 L 329 260 L 329 247 L 342 247 L 342 241 L 329 241 L 329 235.5 L 330 235.5 L 330 240 L 343 240 L 343 248 L 330 248 L 330 259.5 L 328.5 261 L 321 261 L 321 227 Z " /><path desc="l 2 p 13" fill="rgb(255,255,255)" stroke="rgb(255,255,255)" stroke-width="1" opacity="1" d="M 355.5 227 Q 362.3 225.3 364 228.5 L 376 257.5 L 376 261 L 366.5 261 L 366 258.5 L 363.5 254 L 353.5 254 L 353 256.5 L 350.5 261 L 342 261 L 342 257.5 L 353 229.5 L 355.5 227 Z M 355 228 L 343 258 L 343 260 L 350 260 L 352 255 L 354 253 L 365 253 L 367 259 L 368 260 L 375 260 L 363 230 L 363 228 L 355 228 Z " /><path desc="l 2 p 14" fill="rgb(255,255,255)" stroke="rgb(255,255,255)" stroke-width="1" opacity="1" d="M 377 227 Q 385.8 225 388 230.5 L 395.5 243 L 396 228.5 L 397.5 227 L 404.5 227 L 405 227.5 L 405 261 L 396.5 261 L 394 258.5 L 386.5 246 L 385.5 259 L 385 242.5 L 386 242.5 L 394 256.5 L 397.5 260 Q 403.8 260.8 404 259.5 L 404 228 L 397 228 L 397 246.5 L 396 246.5 L 385 228 L 378.5 228 L 378 228.5 L 378 260 L 385 260.5 L 377 261 L 377 227 Z " /><path desc="l 2 p 20" fill="rgb(255,255,255)" stroke="rgb(255,255,255)" stroke-width="1" opacity="1" d="M 263 234 L 274 235 L 275 238.5 Q 274 242 268.5 241 L 268.5 240 Q 273 241 274 238.5 L 272.5 236 L 264 235 L 263.5 241 L 263 234 Z " /><path desc="l 2 p 21" fill="rgb(255,255,255)" stroke="rgb(255,255,255)" stroke-width="1" opacity="1" d="M 299.5 234 Q 305.7 233.3 308 236.5 Q 310.9 240.1 310 247.5 L 305.5 254 Q 297 256 295 251.5 L 294 247.5 L 295 247.5 L 298.5 253 Q 306.5 254.5 308 249.5 L 309 241.5 L 305.5 236 L 299.5 235 L 296 237.5 L 293.5 246 L 293 242.5 L 296 235 L 299.5 234 Z " /><path desc="l 2 p 22" fill="rgb(255,255,255)" stroke="rgb(255,255,255)" stroke-width="1" opacity="1" d="M 206.5 238 L 210 247 L 203 246.5 L 206.5 238 Z M 207 241 L 205 246 L 209 246 L 207 241 Z " /><path desc="l 2 p 23" fill="rgb(255,255,255)" stroke="rgb(255,255,255)" stroke-width="1" opacity="1" d="M 358.5 238 Q 362 241.2 362 247 L 355 246.5 L 358.5 238 Z M 359 241 L 357 244 Q 356 248 361 246 L 359 241 Z " /><path desc="l 2 p 26" fill="rgb(255,255,255)" stroke="rgb(255,255,255)" stroke-width="1" opacity="1" d="M 187 274 L 255.5 274 L 256 275.5 L 254.5 275 L 188.5 275 L 188 278 L 254.5 278 L 255.5 277 L 256 279 L 187.5 279 L 187 274 Z " /><path desc="l 2 p 27" fill="rgb(255,255,255)" stroke="rgb(255,255,255)" stroke-width="1" opacity="1" d="M 341 274 L 409.5 274 L 410 279 L 341.5 279 L 341 274 Z M 342 275 L 343 278 L 409 278 L 409 275 L 342 275 Z " /><path desc="l 2 p 29" fill="rgb(255,255,255)" stroke="rgb(255,255,255)" stroke-width="1" opacity="1" d="M 305.5 281 L 311.5 282 L 314 284.5 L 315 289 L 311.5 290 L 307.5 286 L 305.5 286 L 303 287 Q 301.4 289.1 302 294.5 L 303 297 L 307.5 298 L 310 294 L 312 294.5 L 309.5 298 L 304.5 299 Q 299.9 297.1 301 289.5 L 304.5 285 Q 310 284 311 287.5 Q 310.3 289.8 312.5 289 L 314 286.5 L 313 284 L 305.5 282 L 300 284.5 L 297.5 291 L 297 287.5 L 301.5 282 L 305.5 281 Z " /><path desc="l 2 p 30" fill="rgb(255,255,255)" stroke="rgb(255,255,255)" stroke-width="1" opacity="1" d="M 258 282 L 274.5 282 L 275 286 L 269 285.5 L 274 285 L 273.5 283 L 259 283 L 259 285 L 264.5 285 L 265 285.5 L 265 300.5 L 265.5 302 L 264 300.5 L 264 286 L 258 286 L 258 282 Z " /><path desc="l 2 p 31" fill="rgb(255,255,255)" stroke="rgb(255,255,255)" stroke-width="1" opacity="1" d="M 278 282 L 292.5 282 L 294 283.5 L 292.5 286 L 283.5 286 L 283 289 L 291.5 289 L 293 290.5 L 293 294 L 283 294 L 283 298 L 294 298 L 294 301.5 L 293 301.5 L 292.5 299 L 283.5 299 Q 280.8 297.6 282 293 L 291.5 293 L 292 290 L 282 290 L 282 285 L 292.5 285 L 293 283 L 279 283 L 279 301.5 L 278 301.5 L 278 282 Z " /><path desc="l 2 p 32" fill="rgb(255,255,255)" stroke="rgb(255,255,255)" stroke-width="1" opacity="1" d="M 319.5 282 L 323 282.5 L 319 283 L 319 300.5 L 320 301.5 L 318 302 L 318 283.5 L 319.5 282 Z " /><path desc="l 2 p 33" fill="rgb(255,255,255)" stroke="rgb(255,255,255)" stroke-width="1" opacity="1" d="M 331.5 282 Q 335.3 281.3 336 283.5 L 336 300.5 L 334.5 302 L 335 300.5 L 335 283.5 L 331 283 L 331 290 L 323 290 L 323.5 284 L 324 289 L 330 289 L 330 283.5 L 331.5 282 Z " /><path desc="l 2 p 34" fill="rgb(255,255,255)" stroke="rgb(255,255,255)" stroke-width="1" opacity="1" d="M 297.5 293 L 300.5 300 Q 302.8 302.7 308.5 302 L 314 297.5 L 313 294.5 L 315 294 Q 316.3 300.4 311.5 302 L 304.5 303 L 298 298.5 L 297.5 293 Z " /><path desc="l 2 p 35" fill="rgb(255,255,255)" stroke="rgb(255,255,255)" stroke-width="1" opacity="1" d="M 323 293 L 331 293 L 331 300.5 L 331.5 302 Q 328.3 300.1 330 294 L 324 294 L 324 299.5 L 323 299.5 L 323 293 Z " /><path desc="l 2 p 36" fill="rgb(255,255,255)" stroke="rgb(255,255,255)" stroke-width="1" opacity="1" d="M 282.5 302 L 285 302.5 L 282.5 303 L 282.5 302 Z " /><path desc="l 2 p 37" fill="rgb(255,255,255)" stroke="rgb(255,255,255)" stroke-width="1" opacity="1" d="M 287.5 302 L 290 302.5 L 287.5 303 L 287.5 302 Z " /></svg>