<svg viewBox="0 0 600 400" version="1.1" xmlns="http://www.w3.org/2000/svg" desc="Created with imagetracer.js version 1.2.6" ><path desc="l 0 p 0" fill="rgb(0,0,0)" stroke="rgb(0,0,0)" stroke-width="1" opacity="0.9764705882352941" d="M 304 88 Q 317.4 91.2 327.5 99 L 342.5 103 L 367 118.5 L 349 124.5 L 355 138.5 L 356 149.5 L 352 167.5 L 339.5 184 L 338 182.5 L 320 128 L 305.5 129 L 286.5 127 L 253 118.5 Q 263 108.5 277.5 103 L 290.5 99 L 307 98 L 304 88 Z " /><path desc="l 0 p 1" fill="rgb(0,0,0)" stroke="rgb(0,0,0)" stroke-width="1" opacity="0.9764705882352941" d="M 246.5 165 L 259.5 165 L 268.5 167 Q 280.7 171.8 289 180.5 L 199 207 L 202 197.5 L 214 181 L 230.5 170 L 246.5 165 Z " /><path desc="l 0 p 2" fill="rgb(0,0,0)" stroke="rgb(0,0,0)" stroke-width="1" opacity="0.9764705882352941" d="M 304.5 178 L 317.5 178 Q 327.6 180.4 333 187.5 Q 340 194.5 339 209.5 Q 336.5 220 329.5 226 Q 322.2 233.2 306.5 232 Q 294.6 229.9 289 221.5 L 284 210.5 L 284 198.5 Q 287.1 187.6 295.5 182 L 304.5 178 Z " /><path desc="l 0 p 3" fill="rgb(0,0,0)" stroke="rgb(0,0,0)" stroke-width="1" opacity="0.9764705882352941" d="M 421.5 204 L 425 204.5 L 420 218.5 L 404.5 237 L 384.5 247 L 364.5 248 Q 345 244.5 335 231.5 L 336.5 230 L 421.5 204 Z " /><path desc="l 0 p 4" fill="rgb(0,0,0)" stroke="rgb(0,0,0)" stroke-width="1" opacity="0.9764705882352941" d="M 288.5 228 Q 291.1 227.2 290 230.5 L 320 323.5 L 318.5 323 Q 298.3 318.3 287 304.5 L 275 285.5 L 272 273.5 L 272 259.5 Q 275.6 239.1 288.5 228 Z " /><path desc="l 1 p 0" fill="rgb(0,0,0)" stroke="rgb(0,0,0)" stroke-width="1" opacity="0" d="M 0 0 L 600 0 L 600 400 L 0 400 L 0 0 Z M 304 88 L 307 98 L 291 99 L 278 103 Q 263 108 253 119 L 287 127 L 306 129 L 320 128 L 338 183 L 340 184 L 352 168 L 356 150 L 355 139 L 349 125 L 367 119 L 343 103 L 328 99 Q 317 91 304 88 Z M 247 165 L 231 170 L 214 181 L 202 198 L 199 207 L 289 181 Q 281 172 269 167 L 260 165 L 247 165 Z M 305 178 L 296 182 Q 287 188 284 199 L 284 211 L 289 222 Q 295 230 307 232 Q 322 233 330 226 Q 336 220 339 210 Q 340 195 333 188 Q 328 180 318 178 L 305 178 Z M 422 204 L 337 230 L 335 232 Q 345 244 365 248 L 385 247 L 405 237 L 420 219 L 425 205 L 422 204 Z M 289 228 Q 276 239 272 260 L 272 274 L 275 286 L 287 305 Q 298 318 319 323 L 320 324 L 290 231 Q 291 227 289 228 Z " /></svg>